# Blender 4.5.11 LTS Release Candidate
# www.blender.org
mtllib Prop.mtl
o Cube
v -6.480433 0.018841 0.994000
v -6.480433 4.658663 0.994000
v -6.480433 0.018841 -6.322823
v -6.480433 4.658663 -6.322823
v 3.512416 0.018841 0.994000
v 3.512416 4.658663 0.994000
v 3.512416 0.018841 -6.322823
v 3.512416 4.658663 -6.322823
v 1.876750 0.018841 -6.322823
v -4.844767 0.018841 -6.322823
v -1.906511 4.658663 -6.322823
v -1.061506 4.658663 -6.322823
v -1.906511 0.018841 0.994000
v -1.061506 0.018841 0.994000
v -1.061506 4.658663 0.994000
v -1.906511 4.658663 0.994000
v -6.480433 2.338752 0.994000
v -6.480433 2.338752 -6.322823
v 3.512416 2.338752 -6.322823
v 3.512416 2.338752 0.994000
v -1.061506 1.779274 0.994000
v -1.906511 1.779274 0.994000
v -4.844767 2.338752 -6.322823
v 1.876750 2.338752 -6.322823
v -6.618433 -0.043947 1.095045
v -6.618433 4.724027 1.095045
v -6.618433 -0.043947 -6.423868
v -6.618433 4.724027 -6.423868
v 3.650416 -0.043947 1.095045
v 3.650416 4.724027 1.095045
v 3.650416 -0.043947 -6.423868
v 3.650416 4.724027 -6.423868
v 1.969574 -0.043947 -6.423868
v -4.937591 -0.043947 -6.423868
v -1.918180 4.724027 -6.423868
v -1.049836 4.724027 -6.423868
v -1.918180 -0.043947 1.095045
v -1.049836 -0.043947 1.095045
v -1.049836 4.724027 1.095045
v -1.918180 4.724027 1.095045
v -6.618433 2.340040 1.095045
v -6.618433 2.340040 -6.423868
v 3.650416 2.340040 -6.423868
v 3.650416 2.340040 1.095045
v -1.049836 1.765109 1.095045
v -1.918180 1.765109 1.095045
v -4.937591 2.340040 -6.423868
v 1.969574 2.340040 -6.423868
vn 1.0000 -0.0000 -0.0000
vn -0.0000 -0.0000 1.0000
vn -1.0000 -0.0000 -0.0000
vn -0.0000 -0.0000 -1.0000
vn -0.0000 1.0000 -0.0000
vn -0.0000 -1.0000 -0.0000
vn -0.0000 0.8494 -0.5278
vn -0.9934 -0.0000 0.1147
vn -0.0000 -0.9903 -0.1388
vn -0.7364 -0.0000 -0.6765
vn -0.0000 -0.9999 -0.0127
vn 0.9934 -0.0000 0.1147
vn -0.0000 0.8494 0.5278
vn 0.7364 -0.0000 -0.6765
vt 0.500000 0.000000
vt 0.500000 0.250000
vt 0.625000 0.250000
vt 0.625000 0.000000
vt 0.500000 0.416667
vt 0.500000 0.500000
vt 0.625000 0.500000
vt 0.625000 0.416667
vt 0.500000 0.750000
vt 0.625000 0.750000
vt 0.500000 0.916667
vt 0.500000 1.000000
vt 0.625000 1.000000
vt 0.625000 0.916667
vt 0.291667 0.500000
vt 0.291667 0.750000
vt 0.375000 0.750000
vt 0.375000 0.500000
vt 0.791667 0.500000
vt 0.791667 0.750000
vt 0.875000 0.750000
vt 0.875000 0.500000
vt 0.708333 0.750000
vt 0.708333 0.500000
vt 0.125000 0.500000
vt 0.125000 0.750000
vt 0.208333 0.750000
vt 0.208333 0.500000
vt 0.500000 0.833333
vt 0.625000 0.833333
vt 0.500000 0.333333
vt 0.625000 0.333333
vt 0.375000 0.250000
vt 0.375000 0.333333
vt 0.375000 0.833333
vt 0.375000 0.916667
vt 0.375000 1.000000
vt 0.375000 0.416667
vt 0.375000 0.000000
s 0
f 17/1/1 18/2/1 4/3/1 2/4/1
f 24/5/2 19/6/2 8/7/2 12/8/2
f 19/6/3 20/9/3 6/10/3 8/7/3
f 22/11/4 17/12/4 2/13/4 16/14/4
f 9/15/5 14/16/5 5/17/5 7/18/5
f 11/19/6 16/20/6 2/21/6 4/22/6
f 8/7/6 6/10/6 15/23/6 12/24/6
f 12/24/6 15/23/6 16/20/6 11/19/6
f 3/25/5 1/26/5 13/27/5 10/28/5
f 10/28/5 13/27/5 14/16/5 9/15/5
f 20/9/4 21/29/4 15/30/4 6/10/4
f 21/29/4 22/11/4 16/14/4 15/30/4
f 18/2/2 23/31/2 11/32/2 4/3/2
f 23/31/2 24/5/2 12/8/2 11/32/2
f 3/33/2 10/34/2 23/31/2 18/2/2
f 5/17/4 14/35/4 21/29/4 20/9/4
f 13/36/4 1/37/4 17/12/4 22/11/4
f 7/18/3 5/17/3 20/9/3 19/6/3
f 9/38/2 7/18/2 19/6/2 24/5/2
f 1/39/1 3/33/1 18/2/1 17/1/1
f 41/1/3 26/4/3 28/3/3 42/2/3
f 48/5/4 36/8/4 32/7/4 43/6/4
f 43/6/1 32/7/1 30/10/1 44/9/1
f 46/11/2 40/14/2 26/13/2 41/12/2
f 33/15/6 31/18/6 29/17/6 38/16/6
f 35/19/5 28/22/5 26/21/5 40/20/5
f 32/7/5 36/24/5 39/23/5 30/10/5
f 36/24/5 35/19/5 40/20/5 39/23/5
f 27/25/6 34/28/6 37/27/6 25/26/6
f 34/28/6 33/15/6 38/16/6 37/27/6
f 44/9/2 30/10/2 39/30/2 45/29/2
f 45/29/2 39/30/2 40/14/2 46/11/2
f 42/2/4 28/3/4 35/32/4 47/31/4
f 47/31/4 35/32/4 36/8/4 48/5/4
f 27/33/4 42/2/4 47/31/4 34/34/4
f 29/17/2 44/9/2 45/29/2 38/35/2
f 37/36/2 46/11/2 41/12/2 25/37/2
f 31/18/1 43/6/1 44/9/1 29/17/1
f 33/38/4 48/5/4 43/6/4 31/18/4
f 25/39/3 41/1/3 42/2/3 27/33/3
f 10/28/7 9/15/7 33/15/7 34/28/7
f 21/29/8 14/35/8 38/35/8 45/29/8
f 22/11/9 21/29/9 45/29/9 46/11/9
f 9/38/10 24/5/10 48/5/10 33/38/10
f 24/5/11 23/31/11 47/31/11 48/5/11
f 13/36/12 22/11/12 46/11/12 37/36/12
f 14/16/13 13/27/13 37/27/13 38/16/13
f 23/31/14 10/34/14 34/34/14 47/31/14
