# Blender 4.5.11 LTS
# www.blender.org
mtllib 1.mtl
o Tree_Trunk_01.001
v -24.179436 10.790836 -48.516312
v -23.935417 10.790836 -48.304276
v -24.070427 9.122036 -48.466263
v -24.242424 9.122036 -48.594315
v -24.483391 9.081638 -48.507278
v -24.464348 10.790836 -48.331253
v -24.538322 9.122036 -48.296219
v -24.528435 9.183033 -48.109329
v -24.396355 10.790836 -48.018265
v -24.385368 9.122036 -47.924271
v -24.204338 9.174137 -47.995316
v -24.068352 10.790836 -47.986282
v -23.978386 9.122036 -47.987259
v -23.869377 9.122036 -48.172318
v -23.889397 9.122036 -48.386307
v -24.027336 13.270639 -48.332230
v -24.072380 13.270639 -48.102249
v -24.184319 16.776644 -48.113235
v -24.043327 16.776644 -48.300247
v -24.233391 13.270639 -48.446243
v -24.207390 16.776644 -48.421219
v -24.405388 13.270639 -48.286331
v -24.351433 16.776644 -48.245316
v -24.305412 13.270639 -48.073318
v -24.142326 20.139040 -48.255325
v -24.237419 20.139040 -48.144241
v -24.218376 20.139040 -48.380325
v -24.323357 20.139040 -48.292313
v -24.234367 24.632441 -48.356277
v -24.308342 24.632441 -48.250320
v -24.357414 24.632441 -48.375320
v -24.311394 28.183643 -48.339310
v -24.146355 7.964336 -48.715286
v -24.413322 7.924236 -48.691238
v -24.225334 7.113132 -48.930252
v -24.612419 7.113132 -48.780228
v -24.634392 7.879536 -48.487259
v -24.846428 7.113132 -48.441238
v -24.670403 7.993336 -48.185257
v -24.836418 7.113132 -48.028275
v -24.566399 7.964336 -47.918289
v -24.586418 7.113132 -47.700272
v -24.303337 8.001537 -47.772293
v -24.190422 7.113132 -47.583328
v -24.092400 7.891537 -47.937332
v -23.960320 7.113132 -47.877274
v -23.784416 7.883434 -48.011307
v -23.567375 7.113132 -48.059280
v -23.689323 7.964336 -48.311234
v -23.510368 7.113132 -48.491287
v -23.852409 7.964336 -48.580276
v -23.827385 7.113132 -48.800247
v -23.420403 12.635942 -47.846268
v -24.087395 13.124643 -48.187332
v -24.197380 12.884043 -48.113235
v -23.498405 12.574144 -47.785233
v -23.443352 12.565638 -47.910233
v -24.049431 12.852839 -48.251297
v -23.521355 12.503839 -47.849319
v -24.134392 12.711641 -48.189285
v -22.686394 11.999743 -47.620316
v -24.898430 12.101244 -48.016312
v -24.375359 12.471743 -48.237259
v -24.364372 12.289339 -48.337234
v -24.895378 12.054438 -48.091263
v -24.849358 12.047937 -47.998245
v -24.356316 12.265741 -48.184280
v -24.846428 12.001139 -48.073318
v -24.351433 12.158640 -48.263260
v -25.407341 11.616541 -47.699295
v -23.502434 17.033739 -48.680252
v -24.154411 17.727343 -48.309280
v -24.150383 17.552942 -48.193314
v -23.502434 16.974939 -48.626297
v -23.550407 16.971544 -48.700272
v -24.214348 17.547045 -48.397293
v -23.549431 16.888842 -48.646317
v -24.143425 17.397638 -48.284256
v -22.968376 16.593340 -49.047318
v -23.888420 16.947245 -47.435257
v -24.187370 17.585238 -48.166214
v -24.249382 17.443544 -48.192215
v -24.009392 16.890642 -47.451248
v -23.871330 16.882242 -47.525223
v -24.140373 17.411539 -48.247269
v -23.992424 16.825640 -47.541214
v -24.235344 17.333841 -48.209305
v -23.488396 16.232943 -46.883255
v -24.069328 12.635942 -49.124222
v -24.162346 13.124643 -48.381302
v -24.054436 12.884043 -48.302322
v -23.985344 12.574144 -49.071243
v -24.121330 12.565638 -49.080276
v -24.234367 12.852839 -48.394241
v -24.037346 12.503839 -49.028275
v -24.147331 12.711641 -48.336258
v -24.107414 11.999743 -49.891312
v -24.718376 17.967745 -48.478226
v -24.206413 18.354143 -48.301224
v -24.232414 18.504244 -48.221268
v -24.761345 18.054338 -48.441238
v -23.918327 15.196138 -49.114334
v -24.127434 15.878839 -48.347244
v -24.084343 15.717241 -48.314285
v -23.862419 15.162539 -49.061234
v -23.959343 15.154741 -49.075272
v -24.221428 15.676844 -48.337234
v -23.903435 15.121141 -49.022293
v -24.106316 15.590242 -48.307327
v -23.753410 14.364542 -50.018265
v -24.694328 13.331339 -47.307327
v -24.168327 14.204943 -48.141312
v -24.268425 14.427439 -48.148270
v -24.763420 13.392740 -47.320267
v -24.775383 13.250841 -47.294266
v -24.344353 14.115740 -48.246292
v -24.339348 14.337938 -48.205276
v -24.833366 13.307238 -47.320267
v -25.026360 13.030542 -46.916214
v -24.215324 15.276941 -48.417313
v -25.247429 14.713343 -48.439285
v -25.336418 14.772043 -48.439285
v -24.308342 15.451738 -48.302322
v -25.354362 14.714243 -48.353226
v -24.275383 15.279039 -48.153275
v -25.264397 14.655542 -48.353226
v -24.249382 15.104143 -48.266312
v -26.178337 14.215441 -48.489334
v -24.217400 13.909739 -48.359329
v -24.744377 13.508844 -48.793289
v -24.795403 13.573938 -48.768265
v -24.292351 14.136843 -48.305252
v -24.803337 13.502138 -48.718216
v -24.359367 13.901644 -48.256302
v -24.754387 13.411043 -48.746292
v -24.302361 13.712442 -48.357254
v -25.613396 12.910738 -49.567215
v -24.159416 18.509844 -48.336258
v -24.734367 18.057642 -48.529251
v -24.777336 18.119143 -48.493240
v -24.214348 18.685038 -48.287308
v -25.726433 17.368639 -48.883255
v -24.293327 15.530939 -48.203323
v -23.319328 14.957140 -47.942215
v -23.254387 15.000040 -47.926224
v -24.234367 15.631342 -48.280228
v -23.227409 14.958643 -47.986282
v -24.226433 15.535341 -48.340286
v -23.292351 14.915644 -48.002274
v -24.255363 15.435244 -48.284256
v -22.701408 14.630144 -47.779251
v -23.864372 5.099659 -49.024246
v -24.505363 6.290867 -48.872269
v -24.115349 6.232174 -48.945267
v -24.274406 5.099659 -49.068314
v -24.828362 6.356472 -48.573318
v -24.858391 5.099926 -48.857254
v -24.881340 6.189678 -48.105301
v -24.994377 5.099659 -48.344315
v -24.728386 6.232174 -47.715286
v -24.967400 5.099224 -47.831253
v -24.344353 6.177692 -47.500320
v -24.619377 5.099659 -47.383255
v -24.034416 6.338863 -47.742264
v -24.181389 5.099293 -47.555252
v -23.583366 6.350727 -47.851273
v -23.633415 5.099659 -47.535233
v -23.443352 6.232174 -48.316238
v -23.368401 5.099657 -47.984329
v -23.682365 6.232174 -48.709305
v -23.419426 5.099659 -48.564285
vn 0.0821 0.0427 -0.9957
vn 0.9714 0.0386 -0.2344
vn 0.4838 0.0669 -0.8726
vn 0.1446 0.0278 -0.9891
vn -0.7267 0.0616 -0.6842
vn -0.9252 0.0570 -0.3751
vn -0.9930 0.0555 -0.1042
vn -0.9382 0.0433 0.3434
vn -0.6554 0.0370 0.7544
vn -0.2749 0.0608 0.9596
vn 0.1644 0.0291 0.9860
vn 0.5029 0.0348 0.8636
vn 0.4710 0.0269 0.8817
vn 0.9744 0.0605 0.2165
vn 0.8184 0.0866 -0.5681
vn 0.9076 0.0327 -0.4185
vn 0.6853 0.0379 0.7273
vn 0.1327 0.0217 0.9909
vn 0.9894 0.0183 -0.1442
vn -0.1250 0.0261 -0.9918
vn -0.1207 0.0183 -0.9925
vn -0.9806 0.0304 -0.1939
vn -0.9941 0.0219 0.1061
vn -0.4837 0.0323 0.8746
vn 0.9964 0.0198 0.0830
vn -0.0903 0.0161 0.9958
vn 0.1642 -0.0033 -0.9864
vn -0.9855 -0.0111 -0.1694
vn 0.9183 0.0260 -0.3950
vn -0.1208 0.0261 0.9923
vn -0.7812 0.0107 -0.6242
vn -0.0047 1.0000 -0.0019
vn 0.1429 0.2245 -0.9639
vn -0.4189 0.2184 -0.8814
vn -0.0241 0.1301 -0.9912
vn -0.6124 0.1285 -0.7801
vn -0.8583 0.2042 -0.4708
vn -0.9519 0.1287 -0.2781
vn -0.9773 0.1827 0.1072
vn -0.9396 0.1323 0.3155
vn -0.7382 0.1964 0.6453
vn -0.5632 0.1503 0.8125
vn 0.1003 0.2191 0.9705
vn 0.3199 0.1428 0.9366
vn 0.4719 0.1460 0.8695
vn 0.5765 0.1308 0.8066
vn 0.6477 0.1508 0.7468
vn 0.8182 0.1608 0.5519
vn 0.9704 0.2237 -0.0912
vn 0.9313 0.1374 -0.3373
vn 0.6472 0.2203 -0.7298
vn 0.5146 0.1244 -0.8484
vn 0.5496 0.8254 0.1289
vn 0.3552 0.8267 0.4364
vn -0.3715 0.0456 0.9273
vn -0.2601 0.1373 0.9558
vn 0.3737 -0.1333 -0.9179
vn 0.4744 -0.0960 -0.8751
vn -0.4521 -0.8916 0.0277
vn -0.3266 -0.9449 0.0221
vn 0.7873 -0.5725 0.2288
vn -0.4482 0.8285 0.3358
vn -0.5621 0.8270 -0.0087
vn -0.4711 0.0450 -0.8809
vn -0.5580 0.1378 -0.8183
vn 0.4575 -0.1368 0.8786
vn 0.3658 -0.0951 0.9258
vn 0.2700 -0.8935 -0.3589
vn 0.1946 -0.9451 -0.2624
vn -0.6940 -0.5639 0.4477
vn 0.5237 0.7822 -0.3376
vn 0.6733 0.7181 -0.1763
vn 0.6531 0.1691 0.7381
vn 0.5906 0.0309 0.8064
vn -0.4856 -0.0198 -0.8739
vn -0.3274 0.1352 -0.9351
vn -0.3624 -0.8873 0.2852
vn -0.3800 -0.8015 0.4617
vn 0.7223 -0.4807 -0.4971
vn 0.3910 0.7478 0.5366
vn 0.2004 0.7826 0.5893
vn -0.8856 0.1300 0.4460
vn -0.8147 0.1088 0.5696
vn 0.8475 -0.1327 -0.5139
vn 0.8978 -0.1138 -0.4254
vn -0.4557 -0.7934 -0.4036
vn -0.5913 -0.7202 -0.3628
vn 0.4516 -0.6551 0.6057
vn -0.0677 0.8251 -0.5609
vn 0.2870 0.8270 -0.4834
vn 0.9984 0.0467 0.0316
vn 0.9871 0.1375 -0.0817
vn -0.9900 -0.1361 -0.0360
vn -0.9845 -0.0978 -0.1456
vn 0.1824 -0.8911 0.4156
vn 0.1315 -0.9451 0.2992
vn -0.0537 -0.5724 -0.8182
vn 0.4986 -0.8538 0.1499
vn 0.6013 -0.7989 0.0129
vn -0.4465 0.0963 0.8896
vn -0.3824 -0.0271 0.9236
vn -0.0507 0.7549 -0.6539
vn 0.1594 0.7570 -0.6337
vn 0.9792 0.1438 0.1430
vn 0.9836 0.1699 0.0602
vn -0.9726 -0.1959 -0.1256
vn -0.9570 -0.0828 -0.2779
vn 0.1262 -0.8000 0.5866
vn 0.2973 -0.7465 0.5952
vn 0.1264 -0.6362 -0.7611
vn 0.8869 -0.1852 0.4231
vn 0.8948 -0.1273 0.4279
vn -0.2260 0.6853 0.6923
vn -0.2603 0.7184 0.6450
vn 0.2494 -0.8558 -0.4532
vn -0.4707 -0.5365 -0.7005
vn -0.9118 0.4106 0.0040
vn -0.8393 -0.0380 -0.5423
vn -0.4662 -0.5205 0.7153
vn 0.0502 0.0040 -0.9987
vn 0.2528 -0.4479 -0.8576
vn -0.4559 0.7045 -0.5439
vn -0.5080 0.8450 -0.1674
vn -0.3794 0.3762 0.8453
vn -0.2301 0.1367 0.9635
vn 0.2907 -0.8269 0.4815
vn 0.4104 -0.9058 0.1049
vn -0.8653 -0.4926 -0.0930
vn 0.5274 0.1711 -0.8322
vn 0.6033 0.1004 -0.7912
vn -0.4632 0.8272 -0.3182
vn -0.3496 0.7669 -0.5382
vn -0.7003 -0.0540 0.7118
vn -0.7497 0.0805 0.6569
vn 0.3400 -0.9117 0.2307
vn 0.4832 -0.8672 0.1202
vn -0.6428 -0.4485 -0.6210
vn 0.1995 0.1294 -0.9713
vn 0.2818 0.0690 -0.9570
vn -0.6042 0.7771 -0.1760
vn -0.5615 0.7201 -0.4077
vn -0.7796 -0.5402 -0.3169
vn -0.2266 0.1157 0.9671
vn -0.4540 -0.4632 0.7611
vn 0.3033 0.7078 0.6380
vn 0.4683 0.8662 0.1743
vn 0.5367 0.4020 -0.7418
vn 0.3818 0.1268 -0.9155
vn -0.1969 -0.7978 -0.5699
vn -0.4223 -0.8778 -0.2262
vn 0.8344 -0.4797 0.2713
vn 0.4388 0.1932 -0.8776
vn -0.4562 0.0116 -0.8898
vn 0.1570 0.0260 -0.9873
vn -0.1239 0.1831 -0.9752
vn -0.8911 0.0299 -0.4528
vn -0.7088 0.1979 -0.6771
vn -0.9892 0.0313 0.1431
vn -0.9828 0.1606 -0.0910
vn -0.7447 0.0487 0.6656
vn -0.9109 0.2140 0.3528
vn 0.0956 0.0093 0.9954
vn -0.3042 0.2194 0.9270
vn 0.4422 0.0570 0.8951
vn 0.2119 0.1553 0.9649
vn 0.6877 0.1208 0.7159
vn 0.4512 0.2422 0.8590
vn 0.9902 -0.0015 -0.1397
vn 0.9570 0.1888 0.2202
vn 0.6936 -0.0077 -0.7203
vn 0.8946 0.2011 -0.3991
vt 0.513102 0.238096
vt 0.592881 0.238096
vt 0.548741 -0.034699
vt 0.492509 -0.034699
vt 0.413729 -0.041303
vt 0.419955 0.238096
vt 0.571450 -0.041303
vt 0.502447 -0.034699
vt 0.513901 0.238096
vt 0.441346 -0.024728
vt 0.411574 0.238096
vt 0.380844 -0.034699
vt 0.445776 -0.034699
vt 0.504961 -0.026182
vt 0.442184 0.238096
vt 0.549420 0.238096
vt 0.578833 -0.034699
vt 0.401437 -0.034699
vt 0.461939 -0.034699
vt 0.401118 0.238096
vt 0.505081 0.238096
vt 0.531900 -0.034699
vt 0.607927 -0.034699
vt 0.514220 0.643463
vt 0.439031 0.643463
vt 0.562829 0.643463
vt 0.442623 1.216582
vt 0.503764 1.216582
vt 0.495463 0.643463
vt 0.503963 1.216582
vt 0.557601 1.216582
vt 0.439231 0.643463
vt 0.499214 0.643463
vt 0.456871 1.216582
vt 0.485805 1.216582
vt 0.543314 1.216582
vt 0.551495 0.643463
vt 0.429573 0.643463
vt 0.471916 0.643463
vt 0.548103 0.643463
vt 0.511506 1.216582
vt 0.489077 1.766226
vt 0.452760 1.766226
vt 0.525235 1.766226
vt 0.529944 1.766226
vt 0.466050 1.766226
vt 0.500371 1.766226
vt 0.501170 1.766226
vt 0.522082 2.500752
vt 0.487441 2.500752
vt 0.454915 2.500752
vt 0.495143 2.500752
vt 0.528308 2.500752
vt 0.516535 3.081259
vt 0.469961 3.081259
vt 0.523918 -0.223946
vt 0.436637 -0.230501
vt 0.498096 -0.363090
vt 0.371545 -0.363090
vt 0.364361 -0.237808
vt 0.660686 -0.363090
vt 0.549859 -0.363090
vt 0.564905 -0.237808
vt 0.466169 -0.219205
vt 0.414846 -0.363090
vt 0.378888 -0.223946
vt 0.307610 -0.363090
vt 0.399002 -0.024728
vt 0.386590 -0.223946
vt 0.472595 -0.217865
vt 0.331157 -0.217865
vt 0.380046 -0.363090
vt 0.509511 -0.363090
vt 0.541558 -0.235846
vt 0.269377 -0.363090
vt 0.365479 -0.363090
vt 0.385114 -0.235846
vt 0.642248 -0.237171
vt 0.584740 -0.363090
vt 0.713207 -0.363090
vt 0.409299 -0.237171
vt 0.507356 -0.223946
vt 0.424983 -0.363090
vt 0.566222 -0.363090
vt 0.595315 -0.223946
vt 0.731845 -0.363090
vt 0.628201 -0.363090
vt 0.620019 -0.223946
vt 0.761258 0.539711
vt 0.543194 0.619597
vt 0.507236 0.580267
vt 0.507236 0.539862
vt 0.735755 0.486244
vt 0.761258 0.496221
vt 0.753755 0.528218
vt 0.555606 0.575166
vt 0.728253 0.518116
vt 0.527829 0.552085
vt 0.555606 0.562431
vt 0.753755 0.506678
vt 0.728253 0.496720
vt 0.735755 0.529609
vt 1.001231 0.435713
vt 0.278038 0.452305
vt 0.449048 0.512869
vt 0.452640 0.483052
vt 0.452640 0.576479
vt 0.279035 0.536270
vt 0.278038 0.524018
vt 0.294081 0.443591
vt 0.455274 0.479195
vt 0.295039 0.435941
vt 0.456871 0.461687
vt 0.455274 0.551476
vt 0.294081 0.521065
vt 0.295039 0.533337
vt 0.279035 0.444653
vt 0.435439 0.444653
vt 0.307291 0.373071
vt 0.410935 0.452305
vt 0.111656 0.373071
vt 0.405029 0.443591
vt 0.429573 0.435941
vt 0.628001 1.258609
vt 0.506717 1.371991
vt 0.468803 1.343482
vt 0.610361 1.248997
vt 0.718755 1.248442
vt 0.501689 1.342518
vt 0.521284 1.371991
vt 0.734439 1.258609
vt 0.616906 1.234923
vt 0.498536 1.318095
vt 0.535492 1.342518
vt 0.634546 1.248442
vt 0.734439 1.248997
vt 0.522601 1.343482
vt 0.524876 1.318095
vt 0.719073 1.234923
vt 0.748008 1.186618
vt 0.909041 1.186618
vt 0.220968 1.244470
vt 0.459943 1.348761
vt 0.468444 1.325599
vt 0.490235 0.552773
vt 0.568696 0.431649
vt 0.608246 0.429035
vt 0.250381 1.233844
vt 0.486443 1.320367
vt 0.574243 0.446355
vt 0.494824 0.555566
vt 0.525873 0.561772
vt 0.613833 0.443741
vt 0.226196 1.235217
vt 0.474031 1.307666
vt 0.255609 1.224591
vt 0.568696 1.235217
vt 0.739028 1.127704
vt 0.608246 1.244470
vt 0.040498 1.127704
vt 0.613833 1.233844
vt 0.574243 1.224591
vt 0.773150 0.539711
vt 0.530263 0.619597
vt 0.504442 0.580267
vt 0.553969 0.570772
vt 0.576558 0.696466
vt 0.549101 0.705126
vt 0.758783 0.528218
vt 0.534494 0.575166
vt 0.741782 0.518116
vt 0.515537 0.552085
vt 0.495143 0.585798
vt 0.532099 0.697942
vt 0.559557 0.689442
vt 0.755830 0.529609
vt 1.023939 0.435713
vt 0.336904 1.411289
vt 0.504283 1.474452
vt 0.495782 1.498989
vt 0.322856 1.425444
vt 0.769918 0.958220
vt 0.519129 1.069820
vt 0.508353 1.043404
vt 0.752558 0.952728
vt 0.757147 0.951453
vt 0.515856 1.036800
vt 0.603337 0.688464
vt 0.537008 0.571590
vt 0.499374 0.576479
vt 0.585059 0.697124
vt 0.506078 1.022644
vt 0.739827 0.945961
vt 1.065445 0.822281
vt 0.344766 0.653386
vt 0.516734 0.796192
vt 0.484009 0.832563
vt 0.322177 0.663423
vt 0.318266 0.405987
vt 0.459185 0.561613
vt 0.516734 0.544452
vt 0.344766 0.408122
vt 0.472715 0.817932
vt 0.486124 0.781610
vt 0.174872 0.640227
vt 0.318266 0.640227
vt 0.299309 0.649446
vt 0.460822 0.817932
vt 0.236213 0.604215
vt 0.179143 0.653386
vt 0.051274 0.604215
vt 0.236213 0.344188
vt 0.299309 0.410237
vt 0.183373 0.649446
vt 0.183373 0.663423
vt 0.501369 0.971429
vt 0.163937 0.879299
vt 0.134844 0.888894
vt 0.470958 1.000003
vt 0.470958 0.570772
vt 0.134844 0.593161
vt 0.128977 0.579093
vt 0.128977 0.879446
vt 0.481734 0.971772
vt 0.158390 0.869850
vt 0.490235 0.943182
vt 0.490235 0.564885
vt 0.158390 0.579093
vt 0.163937 0.593161
vt -0.140410 0.797908
vt -0.140410 0.601342
vt 0.500691 0.747935
vt 0.328403 0.682402
vt 0.311721 0.693043
vt 0.476187 0.785059
vt 0.505400 0.785059
vt 0.656776 0.693043
vt 0.640413 0.681306
vt 0.489397 0.746612
vt 0.454276 0.746612
vt 0.309127 0.681306
vt 0.325130 0.666415
vt 0.472914 0.715684
vt 0.522402 0.715684
vt 0.649592 0.666415
vt 0.664957 0.682402
vt 0.523080 0.747935
vt 0.044290 0.584631
vt 0.917981 0.584631
vt 0.519648 1.499905
vt 0.331676 1.425984
vt 0.317627 1.436038
vt 0.501689 1.528543
vt 0.007334 1.313355
vt 0.475867 1.012949
vt 0.794302 0.919151
vt 0.815534 0.926165
vt 0.495143 1.029362
vt 0.495143 0.567160
vt 0.815534 0.509292
vt 0.824354 0.519109
vt 0.824354 0.919398
vt 0.497738 1.013669
vt 0.803122 0.912369
vt 0.488279 0.997306
vt 0.488279 0.567818
vt 0.803122 0.521724
vt 0.794302 0.511906
vt 0.475867 0.554588
vt 0.996322 0.865698
vt 0.996322 0.485266
vt 0.454077 0.832563
vt 0.616108 -0.692229
vt 0.406545 -0.497504
vt 0.534055 -0.507099
vt 0.482053 -0.692229
vt 0.300945 -0.486780
vt 0.291128 -0.692185
vt 0.593040 -0.486780
vt 0.685869 -0.692185
vt 0.440029 -0.514045
vt 0.518171 -0.692229
vt 0.312519 -0.507099
vt 0.350433 -0.692300
vt 0.255489 -0.692300
vt 0.459185 -0.516005
vt 0.333631 -0.507099
vt 0.242239 -0.516005
vt 0.203966 -0.692229
vt 0.369270 -0.692229
vt 0.560515 -0.489658
vt 0.512464 -0.692288
vt 0.321339 -0.489658
vt 0.707979 -0.487719
vt 0.691616 -0.692229
vt 0.253653 -0.692229
vt 0.508992 -0.507099
vt 0.356978 -0.487719
vt 0.400479 -0.692229
vt 0.637499 -0.507099
vt 0.590087 -0.692229
vt 0.675613 -0.507099
vt 0.761577 -0.692229
vt 0.714644 -0.507099
vt 0.740465 -0.692229
s 1
usemtl Tree_Trunk_01
f 1/1/1 2/2/2 3/3/3
f 3/3/3 4/4/4 1/1/1
f 4/4/4 5/5/5 1/1/1
f 6/6/6 1/1/1 5/5/5
f 5/7/5 7/8/7 6/9/6
f 7/8/7 8/10/8 6/9/6
f 9/11/9 6/9/6 8/10/8
f 8/10/8 10/12/10 9/11/9
f 10/13/10 11/14/11 9/15/9
f 12/16/12 9/15/9 11/14/11
f 11/14/11 13/17/13 12/16/12
f 13/18/13 14/19/14 12/20/12
f 2/21/2 12/20/12 14/19/14
f 14/19/14 15/22/15 2/21/2
f 15/23/15 3/3/3 2/2/2
f 16/24/16 17/25/17 2/21/2
f 2/2/2 1/1/1 16/26/16
f 18/27/18 17/25/17 16/24/16
f 16/24/16 19/28/19 18/27/18
f 20/29/20 16/26/16 1/1/1
f 1/1/1 6/6/6 20/29/20
f 16/26/16 20/29/20 21/30/21
f 21/30/21 19/31/19 16/26/16
f 22/32/22 20/29/20 6/6/6
f 6/9/6 9/11/9 22/33/22
f 20/29/20 22/32/22 23/34/23
f 23/35/23 21/36/21 20/37/20
f 24/38/24 22/33/22 9/11/9
f 9/15/9 12/16/12 24/39/24
f 24/38/24 23/35/23 22/33/22
f 17/40/17 24/39/24 12/16/12
f 12/20/12 2/21/2 17/25/17
f 24/39/24 17/40/17 18/41/18
f 18/41/18 23/34/23 24/39/24
f 18/27/18 19/28/19 25/42/25
f 25/42/25 26/43/26 18/27/18
f 25/44/25 19/31/19 21/30/21
f 21/36/21 27/45/27 25/42/25
f 27/45/27 21/36/21 23/35/23
f 23/34/23 28/46/28 27/47/27
f 28/46/28 23/34/23 18/41/18
f 18/27/18 26/43/26 28/48/28
f 26/43/26 25/42/25 29/49/29
f 29/49/29 30/50/30 26/43/26
f 25/42/25 27/45/27 29/49/29
f 31/51/31 29/52/29 27/47/27
f 27/47/27 28/46/28 31/51/31
f 30/50/30 31/53/31 28/48/28
f 28/48/28 26/43/26 30/50/30
f 30/50/30 29/49/29 32/54/32
f 29/52/29 31/51/31 32/55/32
f 31/53/31 30/50/30 32/54/32
f 3/3/3 33/56/33 34/57/34
f 34/57/34 4/4/4 3/3/3
f 34/57/34 33/56/33 35/58/35
f 35/58/35 36/59/36 34/57/34
f 4/4/4 34/57/34 37/60/37
f 37/60/37 5/5/5 4/4/4
f 37/60/37 34/57/34 36/59/36
f 36/61/36 38/62/38 37/63/37
f 5/7/5 37/63/37 39/64/39
f 39/64/39 7/8/7 5/7/5
f 39/64/39 37/63/37 38/62/38
f 38/62/38 40/65/40 39/64/39
f 7/8/7 39/64/39 41/66/41
f 41/66/41 8/10/8 7/8/7
f 41/66/41 39/64/39 40/65/40
f 40/65/40 42/67/42 41/66/41
f 8/68/8 41/69/41 43/70/43
f 43/71/43 10/12/10 8/10/8
f 43/70/43 41/69/41 42/72/42
f 42/72/42 44/73/44 43/70/43
f 10/13/10 43/70/43 45/74/45
f 45/74/45 11/14/11 10/13/10
f 45/74/45 43/70/43 44/73/44
f 44/75/44 46/76/46 45/77/45
f 11/14/11 45/74/45 47/78/47
f 47/78/47 13/17/13 11/14/11
f 47/78/47 45/74/45 46/79/46
f 46/79/46 48/80/48 47/78/47
f 13/18/13 47/81/47 49/82/49
f 49/82/49 14/19/14 13/18/13
f 49/82/49 47/81/47 48/83/48
f 48/83/48 50/84/50 49/82/49
f 14/19/14 49/82/49 51/85/51
f 51/85/51 15/22/15 14/19/14
f 51/85/51 49/82/49 50/84/50
f 50/86/50 52/87/52 51/88/51
f 15/23/15 51/88/51 33/56/33
f 33/56/33 3/3/3 15/23/15
f 33/56/33 51/88/51 52/87/52
f 52/87/52 35/58/35 33/56/33
f 53/89/53 54/90/54 55/91/55
f 55/92/55 56/93/56 53/94/53
f 57/95/57 58/96/58 54/90/54
f 54/90/54 53/89/53 57/95/57
f 59/97/59 60/98/60 58/96/58
f 58/99/58 57/100/57 59/101/59
f 56/102/56 55/91/55 60/98/60
f 60/98/60 59/97/59 56/102/56
f 56/102/56 61/103/61 53/89/53
f 53/89/53 61/103/61 57/95/57
f 57/95/57 61/103/61 59/97/59
f 59/97/59 61/103/61 56/102/56
f 62/104/62 63/105/63 64/106/64
f 64/107/64 65/108/65 62/109/62
f 66/110/66 67/111/67 63/105/63
f 63/105/63 62/104/62 66/110/66
f 68/112/68 69/113/69 67/111/67
f 67/114/67 66/115/66 68/116/68
f 65/117/65 64/106/64 69/113/69
f 69/113/69 68/112/68 65/117/65
f 65/118/65 70/119/70 62/120/62
f 62/104/62 70/121/70 66/110/66
f 66/122/66 70/119/70 68/123/68
f 68/112/68 70/121/70 65/117/65
f 71/124/71 72/125/72 73/126/73
f 73/126/73 74/127/74 71/124/71
f 75/128/75 76/129/76 72/130/72
f 72/130/72 71/131/71 75/128/75
f 77/132/77 78/133/78 76/134/76
f 76/134/76 75/135/75 77/132/77
f 74/136/74 73/137/73 78/138/78
f 78/138/78 77/139/77 74/136/74
f 74/127/74 79/140/79 71/124/71
f 71/131/71 79/141/79 75/128/75
f 75/135/75 79/140/79 77/132/77
f 77/139/77 79/141/79 74/136/74
f 80/142/80 81/143/81 82/144/82
f 82/145/82 83/146/83 80/147/80
f 84/148/84 85/149/85 81/143/81
f 81/143/81 80/142/80 84/148/84
f 86/150/86 87/151/87 85/152/85
f 85/152/85 84/153/84 86/150/86
f 83/154/83 82/144/82 87/155/87
f 87/155/87 86/156/86 83/154/83
f 83/157/83 88/158/88 80/159/80
f 80/142/80 88/160/88 84/148/84
f 84/161/84 88/158/88 86/162/86
f 86/156/86 88/160/88 83/154/83
f 89/163/89 90/164/90 91/165/91
f 91/166/91 92/167/92 89/168/89
f 93/169/93 94/170/94 90/164/90
f 90/164/90 89/163/89 93/169/93
f 95/171/95 96/172/96 94/170/94
f 94/173/94 93/174/93 95/175/95
f 92/176/92 91/165/91 96/172/96
f 96/172/96 95/171/95 92/176/92
f 92/176/92 97/177/97 89/163/89
f 89/163/89 97/177/97 93/169/93
f 93/169/93 97/177/97 95/171/95
f 95/171/95 97/177/97 92/176/92
f 98/178/98 99/179/99 100/180/100
f 100/180/100 101/181/101 98/178/98
f 102/182/102 103/183/103 104/184/104
f 104/184/104 105/185/105 102/182/102
f 106/186/106 107/187/107 103/183/103
f 103/183/103 102/182/102 106/186/106
f 108/188/108 109/189/109 107/190/107
f 107/190/107 106/191/106 108/188/108
f 105/185/105 104/184/104 109/192/109
f 109/192/109 108/193/108 105/185/105
f 105/185/105 110/194/110 102/182/102
f 102/182/102 110/194/110 106/186/106
f 106/186/106 110/194/110 108/193/108
f 108/193/108 110/194/110 105/185/105
f 111/195/111 112/196/112 113/197/113
f 113/197/113 114/198/114 111/195/111
f 115/199/115 116/200/116 112/201/112
f 112/201/112 111/202/111 115/199/115
f 117/203/117 116/204/116 115/205/115
f 115/206/115 118/207/118 117/208/117
f 114/198/114 119/209/119 111/195/111
f 111/210/111 119/211/119 115/205/115
f 115/199/115 119/212/119 118/213/118
f 118/214/118 119/211/119 114/215/114
f 120/216/120 121/217/121 122/218/122
f 122/218/122 123/219/123 120/216/120
f 123/220/123 122/221/122 124/222/124
f 124/223/124 125/224/125 123/219/123
f 125/224/125 124/223/124 126/225/126
f 126/225/126 127/226/127 125/224/125
f 127/227/127 126/228/126 121/229/121
f 121/217/121 120/216/120 127/226/127
f 122/218/122 121/217/121 128/230/128
f 121/229/121 126/228/126 128/231/128
f 128/230/128 126/225/126 124/223/124
f 128/231/128 124/222/124 122/221/122
f 129/232/129 130/233/130 131/234/131
f 131/234/131 132/235/132 129/232/129
f 132/236/132 131/237/131 133/238/133
f 133/238/133 134/239/134 132/236/132
f 134/240/134 133/241/133 135/242/135
f 135/242/135 136/243/136 134/240/134
f 136/244/136 135/245/135 130/246/130
f 130/246/130 129/247/129 136/244/136
f 131/234/131 130/233/130 137/248/137
f 133/238/133 131/237/131 137/249/137
f 135/242/135 133/241/133 137/248/137
f 130/246/130 135/245/135 137/249/137
f 138/250/138 139/251/139 140/252/140
f 140/252/140 141/253/141 138/250/138
f 141/253/141 140/252/140 101/181/101
f 101/181/101 100/180/100 141/253/141
f 99/179/99 98/178/98 139/251/139
f 139/251/139 138/250/138 99/179/99
f 140/252/140 139/251/139 142/254/142
f 101/181/101 140/252/140 142/254/142
f 98/178/98 101/181/101 142/254/142
f 139/251/139 98/178/98 142/254/142
f 143/255/143 144/256/144 145/257/145
f 145/257/145 146/258/146 143/255/143
f 146/259/146 145/260/145 147/261/147
f 147/262/147 148/263/148 146/258/146
f 148/263/148 147/262/147 149/264/149
f 149/264/149 150/265/150 148/263/148
f 150/266/150 149/267/149 144/268/144
f 144/268/144 143/269/143 150/266/150
f 145/257/145 144/256/144 151/270/151
f 144/268/144 149/267/149 151/271/151
f 151/270/151 149/264/149 147/262/147
f 151/271/151 147/261/147 145/260/145
f 114/215/114 113/272/113 117/203/117
f 117/203/117 118/214/118 114/215/114
f 152/273/152 153/274/153 154/275/154
f 153/274/153 152/273/152 155/276/155
f 153/274/153 35/58/35 154/275/154
f 35/58/35 153/274/153 36/59/36
f 155/276/155 156/277/156 153/274/153
f 156/277/156 155/276/155 157/278/157
f 156/277/156 36/59/36 153/274/153
f 36/61/36 156/279/156 38/62/38
f 157/280/157 158/281/158 156/279/156
f 158/281/158 157/280/157 159/282/159
f 158/281/158 38/62/38 156/279/156
f 38/62/38 158/281/158 40/65/40
f 159/282/159 160/283/160 158/281/158
f 160/283/160 159/282/159 161/284/161
f 160/283/160 40/65/40 158/281/158
f 40/65/40 160/283/160 42/67/42
f 161/285/161 162/286/162 160/287/160
f 162/288/162 161/284/161 163/289/163
f 162/286/162 42/72/42 160/287/160
f 42/72/42 162/286/162 44/73/44
f 163/290/163 164/291/164 162/286/162
f 164/291/164 163/290/163 165/292/165
f 164/291/164 44/73/44 162/286/162
f 44/75/44 164/293/164 46/76/46
f 165/292/165 166/294/166 164/291/164
f 166/294/166 165/292/165 167/295/167
f 166/294/166 46/79/46 164/291/164
f 46/79/46 166/294/166 48/80/48
f 167/296/167 168/297/168 166/298/166
f 168/297/168 167/296/167 169/299/169
f 168/297/168 48/83/48 166/298/166
f 48/83/48 168/297/168 50/84/50
f 169/299/169 170/300/170 168/297/168
f 170/300/170 169/299/169 171/301/171
f 170/300/170 50/84/50 168/297/168
f 50/86/50 170/302/170 52/87/52
f 171/303/171 154/275/154 170/302/170
f 154/304/154 171/301/171 152/305/152
f 154/275/154 52/87/52 170/302/170
f 52/87/52 154/275/154 35/58/35
o Tree_Branches_01
v -24.034325 24.611544 -49.019302
v -25.631248 25.634638 -46.717300
v -24.253319 23.505243 -48.680313
v -25.850243 24.528444 -46.377335
v -24.180321 25.363939 -47.883316
v -24.190331 24.257242 -48.286392
v -24.249290 26.384340 -50.686295
v -24.259300 25.277643 -51.088394
v -24.302269 28.166040 -48.576309
v -24.294334 27.451738 -48.243301
v -24.347313 27.322245 -50.385391
v -24.338280 26.607943 -50.052383
v -24.228294 13.146341 -48.050308
v -24.156273 12.628244 -45.113297
v -24.233299 11.986444 -48.254288
v -24.161278 11.468439 -45.317276
v -24.245262 27.229342 -48.746353
v -24.176292 26.265940 -45.924332
v -24.255272 26.114740 -49.126358
v -24.185326 25.151339 -46.304337
v -24.143333 14.523745 -48.314346
v -24.068260 14.790041 -45.272354
v -24.145287 15.725138 -48.419327
v -24.070335 15.991343 -45.377335
v -23.631248 21.314241 -48.235367
v -24.028343 21.296938 -45.278336
v -23.718285 22.488840 -48.240372
v -24.114281 22.471437 -45.283340
v -24.239281 21.034143 -48.481339
v -24.167259 20.516138 -45.544327
v -24.244286 19.874338 -48.686295
v -24.172264 19.356241 -45.749283
v -24.192284 16.803537 -48.396378
v -24.265282 17.321642 -51.333389
v -24.187279 17.963442 -48.192276
v -24.260277 18.481440 -51.129288
v -24.237328 14.412539 -48.420303
v -24.313255 13.871637 -51.487320
v -24.232323 13.201540 -48.207291
v -24.308250 12.660639 -51.273331
v -24.801292 27.528841 -48.423355
v -24.447289 26.364542 -48.348282
v -26.648338 26.941744 -48.809341
v -26.294334 25.777445 -48.734390
v -24.368309 26.278238 -48.349380
v -24.228294 27.409739 -48.086319
v -22.401268 27.091944 -47.690323
v -22.541283 25.960443 -47.952286
v -24.190331 25.155642 -48.364395
v -25.750267 26.533144 -46.199356
v -24.227318 26.727640 -48.242325
v -25.712303 24.961138 -46.320328
v -24.003319 25.620142 -48.575333
v -23.782249 25.969240 -50.710342
v -23.883324 26.672937 -49.001358
v -23.902245 24.916445 -50.284317
v -25.539330 26.944742 -47.312393
v -25.091331 26.146639 -47.434341
v -26.843285 26.247538 -47.540298
v -26.395287 25.449541 -47.662369
v -24.429344 26.787745 -48.296280
v -24.429344 25.897341 -48.296280
v -25.872337 26.787745 -48.259293
v -25.872337 25.897341 -48.259293
v -24.113304 26.704142 -48.823380
v -24.301292 25.807940 -48.643326
v -23.279320 26.297144 -50.023331
v -23.467308 25.400942 -49.843277
v -24.954247 26.052439 -48.685318
v -24.898338 25.191042 -48.778336
v -26.325340 25.931139 -48.388321
v -26.269310 25.069742 -48.481339
v -24.257225 26.692842 -48.608292
v -24.257225 25.713640 -48.608292
v -24.933250 26.692842 -50.044327
v -24.933250 25.713640 -50.044327
v -24.404320 24.520945 -48.228287
v -21.817284 25.963037 -49.997330
v -24.248314 26.318644 -48.390396
v -21.972313 24.165339 -49.835342
v -24.328270 26.040041 -48.249283
v -24.673241 24.712542 -48.274307
v -22.756248 25.615938 -46.726334
v -23.100243 24.288340 -46.751358
v -24.756248 26.720942 -48.167374
v -24.725243 25.776545 -48.330338
v -24.469261 26.989443 -49.671280
v -24.438255 26.045038 -49.834366
v -22.770287 30.511744 -46.781387
v -22.770287 25.061640 -46.781387
v -25.942284 30.511744 -49.859390
v -25.942284 25.061640 -49.859390
v -25.835228 30.511744 -46.677383
v -25.835228 25.061640 -46.677383
v -22.878319 30.511744 -49.963394
v -22.878319 25.061640 -49.963394
v -24.052269 23.064043 -48.206314
v -23.977318 21.814844 -48.115372
v -22.549339 23.252443 -46.849380
v -22.475243 22.003244 -46.757339
v -24.422264 24.524843 -48.114395
v -24.155296 23.393740 -48.426285
v -25.615257 23.857538 -46.722305
v -25.347313 22.726542 -47.034317
v -24.312279 24.324938 -48.236343
v -24.367332 23.077044 -48.325333
v -23.457298 24.418741 -50.074356
v -23.511253 23.170839 -50.163345
v -24.196312 23.366144 -47.941299
v -24.277245 24.981142 -48.357315
v -26.603294 24.527544 -49.663345
v -26.522240 22.912539 -49.247330
v -24.573265 22.657343 -48.140396
v -21.883324 23.368441 -49.414322
v -24.135277 24.182840 -48.390396
v -22.322289 21.843042 -49.164322
v -24.212303 24.480639 -48.267349
v -24.238304 22.862543 -48.409317
v -24.106224 24.708139 -50.888321
v -24.133324 23.090044 -51.029312
v -24.429344 24.449343 -47.889297
v -24.108299 22.951342 -48.560318
v -25.040306 23.272440 -45.516373
v -24.719261 21.774439 -46.186295
v -24.755272 22.135538 -47.356339
v -25.492332 23.185038 -45.528336
v -24.760277 23.305841 -47.278336
v -25.486229 22.014742 -45.606339
v -25.386253 22.833239 -50.023331
v -25.981224 22.233644 -50.070328
v -25.971336 23.369539 -49.465347
v -26.566307 22.769938 -49.513321
v -24.727318 24.444445 -47.137344
v -24.488304 23.524042 -47.257339
v -25.907249 24.026545 -46.210342
v -25.669334 23.106043 -46.330338
v -24.522240 24.107439 -47.356339
v -24.519310 23.108339 -47.241348
v -24.291283 24.291842 -45.753311
v -24.288231 23.292742 -45.638321
v -24.557274 23.927538 -47.692276
v -24.201317 23.260637 -47.847305
v -25.517235 23.303743 -47.181290
v -25.161278 22.636744 -47.335342
v -24.910301 24.302141 -48.150284
v -24.762230 22.957544 -48.502335
v -26.804344 23.797045 -47.016373
v -26.656273 22.452440 -47.367325
v -25.145287 23.514238 -47.999283
v -25.129295 22.586740 -48.195328
v -26.489281 23.646441 -48.732315
v -26.474266 22.718943 -48.928360
v -24.373314 23.414339 -49.055313
v -24.400291 21.749544 -48.370377
v -26.515282 22.699244 -50.918350
v -26.542259 21.034540 -50.233292
v -25.137230 23.687143 -49.191299
v -25.137230 22.473742 -49.191299
v -26.911278 23.687143 -50.040298
v -26.911278 22.473742 -50.040298
v -24.515282 22.958139 -48.117325
v -24.403343 21.508341 -48.115372
v -22.167259 23.139841 -48.193375
v -22.055321 21.690142 -48.192276
v -23.060326 21.795137 -48.507339
v -20.539330 22.223841 -49.366348
v -22.621239 23.079638 -48.913345
v -20.978294 20.939341 -48.960342
v -22.789330 22.508242 -48.030289
v -22.282249 21.549639 -48.095352
v -22.708275 22.635439 -49.266373
v -22.201317 21.676844 -49.331314
v -23.131248 22.618639 -48.649307
v -22.946312 21.482744 -48.776382
v -21.293236 22.895441 -48.355362
v -21.108299 21.759539 -48.482315
v -22.781273 23.576143 -48.713394
v -22.687279 22.364840 -48.716324
v -21.536278 23.675341 -50.235367
v -21.442284 22.464045 -50.238297
v -24.109276 22.891542 -47.695328
v -21.271263 24.820238 -48.731339
v -24.205223 24.760340 -47.899307
v -21.175316 22.951441 -48.528336
v -24.537254 22.677240 -48.206314
v -24.225243 20.548738 -48.618301
v -25.720238 21.874941 -44.957291
v -25.408226 19.746439 -45.368301
v -24.451317 22.711443 -48.417374
v -24.017235 21.345140 -48.175308
v -26.386253 21.905443 -49.495377
v -25.952293 20.539042 -49.253311
v -23.941307 22.874338 -48.178360
v -24.448265 21.450144 -48.127335
v -21.695335 22.095644 -47.576309
v -22.203270 20.671442 -47.525284
v -24.307274 23.077044 -48.030289
v -24.172264 21.632639 -48.459366
v -25.007225 22.348642 -45.796280
v -24.872337 20.904139 -46.225357
v -24.338280 21.865641 -47.957291
v -23.968285 23.508142 -48.366348
v -23.106224 22.682238 -50.907364
v -23.476341 21.039843 -50.498306
v -25.367332 21.047144 -48.530289
v -27.928246 20.386339 -49.068375
v -26.380272 22.030939 -48.651382
v -26.915306 19.402544 -48.947281
v -25.176292 21.582941 -44.472305
v -22.747337 21.192942 -47.035294
v -27.283226 20.914438 -46.367325
v -24.854271 20.524439 -48.930313
v -23.238304 22.059641 -49.191299
v -23.286278 21.111238 -48.813370
v -24.365257 21.991037 -49.505386
v -24.413231 21.042543 -49.127335
v -25.591331 21.589045 -49.213394
v -25.675316 20.506044 -49.200333
v -26.334251 21.658739 -48.216324
v -26.418236 20.575640 -48.203384
v -23.257225 21.104738 -46.785294
v -23.495262 20.023340 -47.078384
v -23.539330 20.682940 -44.999283
v -23.777245 19.601542 -45.292374
v -25.681297 21.824739 -48.543350
v -25.482323 20.712839 -48.289322
v -27.063255 21.319841 -49.717300
v -26.863304 20.207941 -49.464371
v -24.918236 21.467440 -46.863297
v -24.981224 20.564539 -47.148331
v -24.724266 20.996843 -45.413345
v -24.786278 20.093943 -45.697281
v -25.434227 22.391840 -48.338394
v -25.434227 21.176943 -48.338394
v -27.288231 22.391840 -47.677383
v -27.288231 21.176943 -47.677383
v -24.983299 21.989939 -48.474380
v -24.714256 21.184244 -48.090347
v -25.819237 21.236338 -49.489395
v -25.551292 20.430643 -49.105362
v -24.913231 22.045343 -48.867325
v -24.913231 21.096643 -48.867325
v -24.855247 22.045343 -47.781387
v -24.855247 21.096643 -47.781387
v -24.134300 19.690844 -48.240372
v -25.780296 20.516741 -51.279312
v -24.451317 21.462442 -48.733292
v -25.463280 18.745142 -50.787369
v -25.155296 21.086939 -50.007339
v -24.720238 19.872438 -49.612320
v -26.549339 20.135744 -51.397354
v -26.115257 18.921244 -51.002335
v -24.761253 21.490641 -49.245377
v -24.525291 20.370241 -49.274307
v -24.217308 21.650438 -51.013321
v -23.981224 20.529940 -51.041275
v -23.860252 21.888842 -48.195328
v -24.261253 19.756243 -48.044327
v -22.959251 21.498743 -51.592300
v -23.360252 19.366144 -51.441299
v -23.482323 22.522844 -49.189346
v -23.445335 21.066439 -49.027359
v -23.634300 22.256945 -51.545303
v -23.597313 20.800539 -51.383316
v -24.356224 26.140741 -48.102310
v -24.131248 24.976542 -48.386368
v -25.526268 25.553644 -46.622330
v -25.301292 24.389338 -46.905289
v -24.428246 24.811441 -48.275284
v -24.073265 26.161844 -48.285294
v -22.677269 25.782541 -50.025284
v -23.031273 24.432138 -50.015396
v -24.601341 23.166445 -48.072281
v -23.064232 25.370440 -45.840347
v -24.322289 24.928644 -48.497330
v -23.342308 23.608141 -45.415298
v -24.249290 24.231844 -48.130386
v -25.893333 25.066042 -49.284317
v -24.270287 25.332338 -48.435318
v -25.872337 23.965540 -48.979385
v -24.807274 25.319544 -48.256363
v -24.807274 24.274744 -48.256363
v -24.808250 25.319544 -46.563370
v -24.808250 24.274744 -46.563370
v -25.243309 25.316042 -48.883316
v -25.166283 24.419840 -48.635391
v -25.945335 24.909044 -50.165298
v -25.868309 24.012842 -49.917374
v -25.116234 25.304743 -48.658340
v -25.116234 24.325541 -48.658340
v -26.702293 25.304743 -48.694351
v -26.702293 24.325541 -48.694351
v -24.208275 23.992640 -47.867325
v -24.663231 24.825739 -51.324356
v -24.329247 25.779840 -48.445328
v -24.543236 23.038645 -50.746353
v -24.178246 25.057138 -48.244278
v -24.110252 23.374743 -48.296280
v -22.015282 25.195337 -49.904312
v -21.947289 23.513041 -49.956314
v -24.447289 15.526339 -47.675308
v -23.916283 13.692942 -48.562393
v -25.973289 13.850245 -45.126358
v -25.442284 12.016840 -46.013321
v -22.639305 13.291544 -48.453384
v -23.117332 13.269541 -47.669327
v -23.042259 14.239138 -48.672379
v -23.520287 14.217142 -47.889297
v -24.444237 15.826044 -48.411392
v -24.026268 14.512941 -48.178360
v -26.303246 15.051340 -49.446304
v -25.885277 13.738237 -49.214371
v -23.953270 15.982538 -48.180313
v -24.441307 14.613939 -48.132339
v -21.795311 15.234240 -47.602310
v -22.283226 13.865541 -47.553360
v -24.305321 15.957140 -48.039322
v -24.176292 14.569040 -48.451309
v -24.977318 15.257143 -45.892349
v -24.848289 13.868944 -46.304337
v -24.334251 15.252741 -47.968277
v -23.979271 16.831141 -48.361343
v -23.151268 16.037539 -50.803360
v -23.506248 14.459040 -50.411392
v -24.701317 15.738344 -48.367325
v -23.864281 13.999239 -48.156387
v -27.542259 14.372042 -48.513321
v -26.705223 12.632944 -48.302383
v -25.324242 14.226641 -48.519302
v -27.784325 13.591539 -49.036392
v -26.297264 15.172045 -48.635391
v -26.811302 12.646044 -48.920303
v -25.366234 13.853838 -44.590347
v -23.160301 15.196444 -46.823380
v -26.812279 12.719240 -46.700333
v -24.605247 14.061838 -48.933365
v -24.531273 14.254541 -49.576309
v -24.800316 13.308344 -49.226334
v -25.192284 14.760340 -48.715347
v -25.460228 13.814142 -48.365372
v -22.866234 14.650843 -49.940323
v -23.156273 13.882540 -50.478287
v -23.766258 15.233042 -50.285294
v -24.056297 14.464739 -50.824356
v -25.538231 14.527239 -49.175308
v -25.619286 13.486338 -49.163345
v -26.253319 14.594141 -48.217300
v -26.333275 13.553240 -48.205338
v -23.301292 14.830942 -47.033340
v -23.521263 13.754145 -46.973282
v -23.571312 14.984438 -45.276382
v -23.791283 13.907740 -45.216324
v -23.455223 14.432741 -46.637344
v -23.240257 13.486544 -47.022354
v -22.927269 14.938540 -47.584366
v -22.712303 13.992342 -47.970352
v -24.616234 14.472239 -47.389297
v -24.616234 13.346437 -47.389297
v -23.966331 14.472239 -45.684341
v -23.966331 13.346437 -45.684341
v -24.760277 14.456537 -47.436295
v -25.412254 13.933542 -47.800308
v -24.194237 13.603640 -47.225357
v -24.847313 13.080645 -47.589371
v -25.328270 14.505442 -46.865372
v -25.941307 13.984842 -46.963394
v -24.729271 13.796938 -46.851334
v -25.341331 13.276339 -46.949356
v -24.328270 15.073542 -48.043350
v -24.328270 14.011843 -48.043350
v -24.451317 15.073542 -46.327286
v -24.451317 14.011843 -46.327286
v -25.626244 14.973841 -48.531387
v -25.434227 13.905344 -48.288345
v -26.953270 14.488642 -49.660294
v -26.762230 13.420038 -49.416275
v -24.889305 14.371241 -46.772354
v -24.953270 13.577341 -47.215347
v -24.705223 13.644640 -45.498306
v -24.769310 12.850740 -45.942276
v -25.388329 15.465540 -48.335342
v -25.388329 14.298044 -48.335342
v -27.170311 15.465540 -47.699356
v -27.170311 14.298044 -47.699356
v -24.955223 15.132639 -48.466324
v -24.696312 14.358339 -48.096329
v -25.758324 14.408442 -49.441299
v -25.500267 13.634142 -49.072281
v -23.941307 13.395945 -47.919327
v -25.920311 14.389238 -51.575333
v -24.322289 15.526842 -48.512344
v -25.539330 12.258440 -50.982315
v -25.004295 15.099138 -49.865372
v -24.482323 13.638437 -49.389297
v -26.682274 13.955141 -51.536392
v -26.159325 12.494440 -51.061295
v -24.741234 14.652842 -49.206314
v -24.514305 13.576044 -49.234390
v -24.218285 14.806337 -50.905289
v -23.991234 13.729540 -50.932388
v -23.676292 16.015345 -50.136368
v -23.634300 14.967539 -49.129288
v -22.128319 14.817438 -51.447281
v -22.086327 13.769640 -50.440323
v -23.743309 16.523439 -49.017349
v -24.103294 14.816240 -47.866348
v -22.861229 14.577242 -51.660294
v -23.222313 12.870142 -50.509293
v -23.528343 16.181643 -49.804337
v -23.476341 15.047739 -48.970352
v -23.663231 14.826738 -51.637344
v -23.611229 13.692842 -50.802383
v -24.136253 14.920244 -48.236343
v -24.301292 13.532740 -48.229385
v -21.888329 14.651438 -48.302383
v -22.054344 13.263941 -48.296280
v -23.923241 14.880938 -48.405289
v -24.331322 12.997843 -48.167374
v -21.164330 14.131739 -49.742325
v -21.572289 12.248545 -49.504288
v -22.893333 14.338938 -48.742325
v -22.932274 13.233141 -48.859390
v -21.109276 14.256739 -48.454361
v -21.148338 13.150942 -48.572281
v -23.870262 12.210840 -49.605362
v -23.870262 12.017542 -48.889297
v -24.005272 13.020838 -49.386368
v -24.005272 12.827539 -48.670303
v -24.422264 13.979342 -48.137344
v -24.146263 12.919542 -48.407364
v -25.649315 13.354143 -46.935318
v -25.374290 12.294344 -47.205338
v -24.132225 14.105738 -48.464371
v -24.205223 13.001040 -48.075333
v -23.190331 13.501741 -50.002335
v -23.264305 12.397043 -49.613297
v -24.264305 12.805941 -48.077286
v -24.299339 14.105440 -48.417374
v -26.073265 13.740541 -49.627335
v -26.037254 12.441042 -49.287369
v -24.388329 12.184443 -48.283340
v -21.270287 12.986139 -47.044327
v -23.846336 13.904238 -48.113297
v -21.813255 11.266344 -47.214371
v -22.850243 13.559137 -48.174332
v -23.420311 12.380144 -48.198380
v -20.947289 12.635744 -48.008316
v -21.516258 11.456842 -48.031387
v -24.197289 13.466341 -48.517349
v -24.239281 11.980043 -48.191299
v -23.888329 12.933641 -50.906387
v -23.930321 11.447344 -50.580338
v -24.447289 13.908640 -47.928360
v -24.092308 12.505037 -48.527359
v -25.210228 12.805841 -45.762344
v -24.856224 11.402239 -46.362320
v -24.755272 12.264238 -47.122330
v -25.723289 12.600138 -45.298355
v -25.016258 13.277338 -46.786392
v -25.462303 11.587038 -45.635391
v -25.344261 12.711039 -48.336319
v -25.134300 11.947344 -48.048355
v -24.829247 13.119242 -47.628311
v -24.620262 12.355539 -47.340347
v -25.166283 12.394342 -49.997330
v -25.717308 11.832544 -50.090347
v -25.757225 12.896845 -49.525284
v -26.309227 12.335039 -49.618301
v -24.001244 13.086939 -49.697281
v -24.038231 11.789042 -49.412369
v -23.364281 12.628839 -51.703384
v -23.400291 11.330942 -51.419327
v -23.890282 12.228945 -49.955338
v -24.328270 11.894541 -50.443375
v -24.207298 12.976641 -50.184341
v -24.645287 12.642138 -50.672379
v -23.753319 11.800241 -50.375381
v -23.085228 11.742144 -50.677383
v -23.705223 12.640642 -50.431290
v -23.037254 12.582544 -50.733292
v -22.850243 13.198839 -47.904312
v -22.977318 12.329744 -47.770279
v -22.295311 13.322741 -46.582291
v -22.421288 12.453638 -46.447281
v -23.370262 13.094843 -48.332291
v -23.665306 12.492144 -48.633316
v -23.853294 13.578737 -48.825333
v -24.148338 12.975939 -49.127335
v -23.671288 12.886744 -47.769302
v -23.671288 11.978045 -47.769302
v -22.202293 12.886744 -47.882339
v -22.202293 11.978045 -47.882339
v -22.845238 12.383043 -47.775284
v -22.674339 11.674440 -47.675308
v -21.853294 12.704844 -47.198380
v -21.681297 11.996241 -47.098282
v -24.582298 13.419741 -47.754288
v -24.237328 12.794741 -47.869278
v -25.520287 12.835238 -47.355362
v -25.175316 12.210238 -47.471329
v -23.927269 12.018038 -48.413345
v -27.209251 12.819742 -47.718277
v -24.472313 13.737841 -48.254288
v -26.663231 11.099939 -47.877335
v -25.676292 13.392740 -48.036392
v -25.188255 12.213739 -48.331314
v -27.353294 12.469439 -47.120377
v -26.866234 11.290438 -47.415298
v -25.106224 13.032442 -48.089371
v -25.075340 12.163439 -48.270279
v -26.301292 13.156343 -48.882339
v -26.270287 12.287241 -49.064346
v -25.734276 13.065744 -50.027359
v -24.754295 12.531939 -49.666275
v -25.985252 11.713938 -51.341324
v -25.005272 11.180040 -50.980362
v -24.740257 13.683245 -49.039322
v -24.286278 12.203341 -48.368301
v -26.240257 12.382044 -50.931290
v -25.787254 10.902134 -50.260391
v -25.001244 13.194445 -49.201309
v -25.001244 12.057444 -49.201309
v -26.588280 13.194445 -50.138321
v -26.588280 12.057444 -50.138321
v -25.037254 18.126238 -47.414322
v -23.823265 16.240442 -48.410294
v -27.456322 15.580744 -45.546280
v -26.242332 13.695040 -46.542374
v -24.496239 16.762842 -48.286392
v -24.003319 18.640238 -48.299332
v -22.062279 18.112940 -50.717300
v -22.555321 16.235544 -50.704361
v -24.604271 15.538141 -48.910294
v -22.382225 16.696344 -44.602310
v -24.174339 18.022638 -48.210342
v -22.812279 14.211840 -45.302383
v -24.177269 18.975039 -48.426285
v -23.689232 16.806040 -48.000381
v -27.395287 17.980242 -49.910294
v -26.907249 15.811144 -49.484390
v -24.751244 15.350939 -48.763321
v -27.271263 15.836138 -50.363297
v -25.207298 16.814440 -49.177383
v -26.815331 14.372644 -49.949356
v -25.143333 16.709238 -47.578384
v -25.702293 16.099543 -48.245377
v -24.615257 15.714838 -47.112320
v -25.174339 15.105043 -47.780289
v -24.113304 17.627039 -49.549332
v -24.013329 16.334543 -49.501358
v -25.090233 17.493540 -51.413345
v -24.991234 16.200937 -51.365372
v -25.453270 17.296740 -48.818375
v -25.453270 15.935442 -48.818375
v -27.658226 17.296740 -48.868301
v -27.658226 15.935442 -48.868301
v -24.036278 15.472643 -47.154312
v -24.668236 16.630838 -51.959366
v -24.203270 17.957140 -47.958389
v -24.500267 14.146341 -51.155289
v -23.531273 17.875940 -48.852310
v -24.549339 15.737940 -48.274307
v -20.638329 17.788942 -50.801285
v -21.655296 13.858240 -50.222305
v -24.046288 19.761141 -49.505386
v -24.183250 18.508844 -49.537369
v -23.664330 19.770441 -51.511368
v -23.800316 18.518145 -51.543350
v -23.873314 18.951143 -47.952286
v -24.152245 16.297144 -48.239395
v -27.723289 19.119638 -45.935318
v -28.002342 16.465540 -46.222305
v -24.237328 21.817041 -48.232315
v -24.371239 19.984140 -48.439346
v -22.034325 21.364840 -46.526382
v -22.169334 19.531939 -46.733292
v -24.439232 21.186144 -48.055313
v -24.043236 19.412638 -48.426285
v -26.502342 20.291742 -46.122330
v -26.105247 18.518244 -46.493301
v -24.542259 18.240938 -47.905289
v -24.174339 20.738344 -48.300308
v -21.246239 19.906939 -51.026382
v -21.614281 17.409639 -50.630386
v -24.527245 17.644739 -48.698380
v -23.218285 18.102938 -45.180313
v -24.252342 19.603243 -47.850357
v -23.494286 16.144442 -46.028336
v -24.341331 18.949144 -47.910294
v -24.405296 16.597940 -48.416275
v -20.707298 18.584345 -46.925308
v -20.771263 16.233141 -47.431290
v -24.427269 21.068644 -48.488297
v -23.631248 18.846743 -47.839371
v -27.481224 19.323038 -50.089371
v -26.684227 17.101145 -49.440323
v -24.927269 18.440744 -48.282364
v -27.389305 18.972445 -50.098282
v -25.354271 20.044344 -48.735367
v -26.963280 17.368738 -49.645279
v -24.119286 18.472338 -48.072281
v -24.680321 17.722040 -49.021378
v -24.557274 19.736940 -48.813370
v -25.119286 18.986742 -49.762344
v -24.463280 19.838739 -46.679337
v -24.196312 18.478144 -46.653336
v -25.355247 19.637041 -44.628311
v -25.088280 18.276339 -44.601334
v -23.216331 19.930239 -46.493301
v -23.536278 18.719042 -46.893326
v -24.194237 19.760141 -45.379288
v -24.515282 18.549044 -45.779312
v -24.851341 19.035944 -47.642349
v -25.769310 17.977640 -47.318375
v -24.924339 19.726938 -45.594376
v -25.843285 18.668642 -45.270279
v -25.313255 19.268839 -47.648331
v -25.811302 18.600740 -48.365372
v -24.816307 18.179239 -47.137344
v -25.315331 17.511141 -47.854385
v -25.783226 19.146639 -47.512344
v -26.714256 18.957743 -47.817276
v -25.833275 18.134745 -46.943375
v -26.764305 17.945841 -47.247330
v -24.470238 19.878038 -48.395279
v -24.470238 18.521639 -48.395279
v -25.661278 19.878038 -46.639297
v -25.661278 18.521639 -46.639297
v -25.326317 18.676943 -47.199356
v -25.861229 17.688540 -47.442276
v -26.242332 18.688738 -45.637344
v -26.777245 17.700342 -45.880386
v -25.610252 20.074739 -48.794327
v -25.610252 18.583139 -48.794327
v -27.972313 20.074739 -49.027359
v -27.972313 18.583139 -49.027359
v -23.923241 19.530542 -48.224380
v -24.680321 16.971544 -48.127335
v -20.194237 18.377237 -50.112320
v -20.951317 15.818239 -50.015396
v -24.341331 21.411539 -47.910294
v -24.405296 19.060244 -48.416275
v -20.707298 21.046640 -46.925308
v -20.771263 18.695444 -47.431290
v -24.277245 21.646845 -48.195328
v -24.537254 19.229143 -48.320328
v -20.725243 21.373438 -49.909317
v -20.984276 18.955645 -50.034317
v -24.002342 11.866938 -48.403336
v -24.227318 10.357738 -48.302383
v -23.553246 11.962641 -45.967300
v -23.778343 10.453533 -45.866348
v -24.434227 12.652742 -48.236343
v -24.100243 11.698740 -48.329361
v -25.924339 12.089945 -47.824356
v -25.590233 11.136042 -47.917374
v -24.063255 12.766443 -48.367325
v -24.291283 11.772142 -48.093277
v -22.651268 12.222742 -49.168350
v -22.879295 11.228441 -48.894302
v -24.343285 11.167543 -48.439346
v -24.209251 12.330645 -48.137344
v -25.077293 12.866739 -49.810318
v -25.212303 11.703539 -50.113297
v -24.550316 10.902439 -48.150284
v -21.534325 11.624041 -48.296280
v -24.042259 12.450441 -48.213394
v -22.041283 10.076138 -48.233292
v -24.083275 11.514841 -48.096329
v -24.274315 10.225338 -48.518326
v -22.799339 11.902643 -49.866348
v -22.990257 10.613132 -50.288345
v -24.545311 12.589045 -48.083389
v -24.005272 11.325640 -48.400284
v -26.090233 11.596437 -46.710342
v -25.550316 10.333035 -47.028336
v -25.001244 11.094744 -47.906387
v -26.559227 11.397043 -46.891373
v -25.353294 12.006540 -47.754288
v -26.206322 10.485134 -47.042374
v -22.689232 11.662043 -46.049332
v -23.201317 11.685038 -48.476334
v -24.536278 10.905933 -45.666275
v -25.049339 10.929035 -48.093277
v -24.209251 11.169542 -50.027359
v -24.608299 10.876637 -50.541275
v -24.876244 11.521944 -49.710342
v -25.275291 11.229143 -50.224380
v -25.108299 12.033640 -47.696304
v -24.884300 11.257341 -47.668350
v -26.370262 11.681139 -47.604385
v -26.147240 10.904835 -47.575333
v -24.884300 12.023844 -47.716324
v -24.884300 11.175737 -47.716324
v -25.483299 12.023844 -46.478287
v -25.483299 11.175737 -46.478287
v -24.727318 12.148943 -48.004288
v -24.405296 11.586443 -47.945328
v -25.640282 11.622843 -48.099380
v -25.318260 11.060343 -48.040298
v -24.884300 12.027643 -48.234390
v -24.884300 11.365343 -48.234390
v -24.323265 12.027643 -47.722305
v -24.323265 11.365343 -47.722305
v -23.575340 10.887333 -48.089371
v -26.463280 11.608942 -48.972305
v -24.074242 12.435343 -48.202286
v -25.963280 10.060932 -48.860367
v -24.634300 11.633242 -49.920303
v -24.028343 10.866238 -49.522354
v -24.271263 11.097239 -51.505386
v -23.664330 10.330235 -51.106339
v -24.279320 11.900942 -48.579361
v -24.232323 10.383038 -48.568375
v -24.643333 11.885942 -51.021378
v -24.596336 10.368137 -51.010391
v -24.797264 11.965837 -49.523331
v -24.387230 11.091341 -49.184341
v -25.308250 11.193140 -50.899307
v -24.898338 10.318638 -50.560318
v -22.385277 17.870142 -49.167374
v -22.961327 16.658342 -48.840347
v -20.745262 17.820841 -50.272354
v -21.322289 15.592943 -49.944351
v -24.263329 17.847643 -48.573380
v -24.150291 17.616343 -45.203384
v -24.063255 19.164141 -48.489395
v -23.950340 18.932741 -45.119278
v -24.947289 16.019938 -47.062393
v -25.009300 15.117044 -47.346329
v -24.752342 15.549341 -45.611343
v -24.814232 14.646441 -45.895279
vn 0.9398 0.1512 0.3065
vn 0.9398 0.1511 0.3066
vn 0.9398 0.1510 0.3066
vn -0.9997 0.0002 0.0247
vn -0.7932 -0.0001 -0.6089
vn -0.7932 0.0002 -0.6090
vn -0.7933 -0.0002 -0.6089
vn 0.9920 0.0215 -0.1241
vn 0.9920 0.0216 -0.1241
vn 0.9920 0.0214 -0.1241
vn 0.9920 0.0213 -0.1241
vn 0.2985 0.0214 -0.9542
vn 0.2985 0.0213 -0.9542
vn 0.2984 0.0214 -0.9542
vn 0.2984 0.0215 -0.9542
vn 0.8822 0.0216 -0.4703
vn 0.8822 0.0215 -0.4703
vn 0.8822 0.0214 -0.4703
vn -0.7322 -0.0568 0.6787
vn -0.7322 -0.0570 0.6787
vn -0.7322 -0.0569 0.6787
vn -0.7322 -0.0567 0.6787
vn 0.2877 0.1591 0.9444
vn 0.2877 0.1590 0.9444
vn -0.9328 -0.0540 -0.3564
vn -0.9328 -0.0539 -0.3564
vn 0.9997 -0.0000 -0.0245
vn 0.8822 0.0213 -0.4703
vn 0.8822 0.0212 -0.4703
vn 0.9991 -0.0159 0.0385
vn 0.9991 -0.0158 0.0385
vn -0.9899 0.0190 0.1406
vn -0.9899 0.0191 0.1406
vn -0.9899 0.0192 0.1406
vn 0.9976 -0.0047 -0.0695
vn 0.9976 -0.0048 -0.0695
vn -0.2190 0.0722 -0.9731
vn -0.2188 0.0723 -0.9731
vn -0.9002 -0.0000 -0.4355
vn -0.9283 -0.0617 -0.3668
vn 0.5244 -0.0609 -0.8493
vn 0.5244 -0.0608 -0.8493
vn 0.5084 -0.0000 -0.8611
vn -0.9916 -0.1224 -0.0417
vn -0.9916 -0.1221 -0.0417
vn -0.3726 -0.0272 -0.9276
vn -0.3728 -0.0273 -0.9275
vn 0.2696 0.0940 0.9584
vn 0.2697 0.0940 0.9583
vn 0.2700 0.0940 0.9583
vn -0.3358 -0.0000 -0.9419
vn 0.9977 0.0141 -0.0663
vn 0.9977 0.0142 -0.0663
vn 0.9977 0.0143 -0.0663
vn -0.5027 -0.0004 0.8644
vn -0.5024 0.0001 0.8647
vn -0.5025 0.0002 0.8646
vn -0.5027 -0.0002 0.8645
vn -0.6713 0.0115 0.7411
vn -0.6715 0.0115 0.7409
vn -0.3145 0.3615 -0.8778
vn -0.3151 0.3617 -0.8775
vn -0.3150 0.3617 -0.8774
vn -0.3145 0.3614 -0.8778
vn -0.9744 0.1512 -0.1662
vn -0.9744 0.1511 -0.1663
vn -0.9744 0.1510 -0.1662
vn -0.9300 0.0961 -0.3548
vn -0.9300 0.0960 -0.3548
vn -0.9300 0.0961 -0.3547
vn 0.9551 0.0297 0.2947
vn 0.9551 0.0300 0.2947
vn 0.9551 0.0299 0.2947
vn -0.1375 -0.1053 0.9849
vn -0.1376 -0.1053 0.9849
vn 0.5354 0.2829 -0.7958
vn 0.5351 0.2828 -0.7960
vn -0.7594 -0.0001 -0.6506
vn 0.6584 -0.0425 -0.7515
vn 0.6584 -0.0424 -0.7514
vn 0.7712 0.0468 0.6348
vn 0.7712 0.0462 0.6349
vn 0.7712 0.0462 0.6350
vn -0.9567 -0.0616 -0.2845
vn -0.9567 -0.0619 -0.2845
vn 0.4866 0.0005 -0.8736
vn 0.4864 -0.0004 -0.8737
vn 0.4867 -0.0001 -0.8735
vn -0.9894 -0.0582 -0.1332
vn -0.9894 -0.0583 -0.1332
vn -0.9894 -0.0582 -0.1330
vn 0.4377 -0.0618 -0.8970
vn 0.4377 -0.0617 -0.8970
vn -1.0000 -0.0000 -0.0006
vn 0.6997 0.0142 -0.7143
vn 0.6997 0.0141 -0.7143
vn 0.4221 0.0215 0.9063
vn 0.4221 0.0213 0.9063
vn 0.4221 0.0214 0.9063
vn 0.2775 -0.3003 -0.9126
vn 0.2774 -0.3004 -0.9126
vn 0.2774 -0.3005 -0.9126
vn 0.2775 -0.3004 -0.9126
vn 0.9540 -0.1275 0.2714
vn 0.9540 -0.1274 0.2714
vn -0.5837 0.1530 0.7974
vn -0.5836 0.1530 0.7975
vn 0.2047 -0.0003 -0.9788
vn 0.2046 -0.0005 -0.9788
vn -0.6487 0.7580 -0.0681
vn -0.6486 0.7580 -0.0680
vn -0.6486 0.7581 -0.0680
vn -0.6487 0.7580 -0.0680
vn 0.8717 0.1842 -0.4541
vn 0.8716 0.1847 -0.4540
vn 0.8717 0.1843 -0.4540
vn 0.5540 0.0214 0.8323
vn 0.5539 0.0213 0.8323
vn 0.5539 0.0214 0.8323
vn 0.1873 0.0575 -0.9806
vn 0.1873 0.0574 -0.9806
vn 0.1874 0.0575 -0.9806
vn -0.8248 0.5093 -0.2457
vn -0.8246 0.5095 -0.2457
vn 0.6088 0.0001 0.7933
vn 0.7860 0.3913 0.4786
vn 0.7861 0.3911 0.4787
vn 0.7861 0.3911 0.4786
vn -0.9300 0.0959 -0.3547
vn 0.0707 0.1511 -0.9860
vn 0.0705 0.1512 -0.9860
vn 0.0707 0.1512 -0.9860
vn 0.1872 0.0574 -0.9806
vn -0.0583 -0.0425 -0.9974
vn -0.0582 -0.0425 -0.9974
vn -0.9175 0.1513 0.3678
vn -0.9175 0.1512 0.3678
vn -0.9176 0.1512 0.3678
vn -0.9974 -0.0000 -0.0715
vn 0.9887 0.0237 -0.1478
vn -0.9344 -0.0000 0.3562
vn -0.2209 0.0903 0.9711
vn -0.9900 0.0108 0.1410
vn -0.9900 0.0106 0.1409
vn -0.9900 0.0107 0.1410
vn -0.2210 0.0903 0.9711
vn 0.8833 0.0405 -0.4670
vn 0.8834 0.0404 -0.4669
vn -0.1163 0.9494 -0.2918
vn 0.2414 0.1530 -0.9583
vn 0.2413 0.1530 -0.9583
vn 0.6997 0.0140 -0.7143
vn 0.9997 -0.0001 -0.0246
vn -0.8915 0.0214 0.4525
vn -0.8915 0.0213 0.4525
vn 0.6964 -0.0000 -0.7177
vn -0.6347 -0.0616 -0.7703
vn -0.6346 -0.0618 -0.7703
vn 0.7434 -0.0000 0.6689
vn 0.4867 -0.0002 -0.8736
vn 0.4875 0.1511 -0.8599
vn 0.4874 0.1512 -0.8600
vn 0.8165 -0.2337 0.5280
vn 0.8164 -0.2338 0.5280
vn 0.8164 -0.2338 0.5281
vn 0.5639 0.4512 -0.6917
vn 0.5640 0.4513 -0.6915
vn 0.5640 0.4514 -0.6915
vn 0.5639 0.4513 -0.6916
vn -0.9766 0.1918 -0.0971
vn -0.9766 0.1922 -0.0971
vn -0.9765 0.1922 -0.0971
vn 0.9183 0.3805 0.1096
vn 0.9183 0.3804 0.1097
vn 0.9183 0.3804 0.1096
vn 0.6920 -0.2327 -0.6834
vn 0.6921 -0.2327 -0.6833
vn 0.4144 0.0293 0.9096
vn 0.4144 0.0294 0.9096
vn 0.4144 0.0292 0.9096
vn 0.9941 -0.0609 0.0901
vn 0.9941 -0.0611 0.0901
vn -0.4413 -0.0569 0.8955
vn -0.4413 -0.0568 0.8956
vn -0.5552 -0.0610 -0.8295
vn -0.5553 -0.0609 -0.8294
vn 0.5605 0.1512 -0.8142
vn 0.5604 0.1512 -0.8143
vn 0.5604 0.1511 -0.8143
vn 0.5605 0.1511 -0.8142
vn -0.8580 -0.0000 -0.5136
vn -0.7845 -0.0006 -0.6202
vn 0.0982 -0.0000 -0.9952
vn -0.9231 0.0166 -0.3841
vn -0.9231 0.0169 -0.3842
vn -0.6997 0.0001 -0.7145
vn 0.0767 -0.0000 0.9971
vn 0.0771 -0.0000 0.9970
vn 0.6584 -0.0428 -0.7514
vn 0.6584 -0.0424 -0.7515
vn 0.5241 0.0902 0.8469
vn -0.8276 -0.0000 -0.5613
vn 0.8119 -0.0425 0.5822
vn 0.8120 -0.0425 0.5820
vn -0.9543 -0.0000 -0.2987
vn -0.5403 0.1255 -0.8321
vn 0.8686 0.0902 0.4873
vn 0.8685 0.0904 0.4873
vn 0.9917 0.0001 0.1282
vn 0.7838 -0.0274 -0.6205
vn 0.7837 -0.0273 -0.6205
vn 0.7837 -0.0272 -0.6205
vn 0.7838 -0.0273 -0.6205
vn -0.6206 0.0113 -0.7840
vn -0.6206 0.0115 -0.7840
vn -0.6206 0.0116 -0.7840
vn -0.6206 0.0114 -0.7840
vn -0.8897 -0.0126 0.4565
vn -0.8897 -0.0129 0.4564
vn 0.1230 -0.0272 -0.9920
vn 0.1231 -0.0272 -0.9920
vn 0.1231 -0.0273 -0.9920
vn -0.6835 -0.0119 -0.7299
vn -0.9022 0.1880 0.3882
vn -0.9022 0.1881 0.3882
vn 0.9066 -0.0552 0.4183
vn 0.9067 -0.0554 0.4182
vn -0.8029 0.0214 -0.5957
vn 0.9785 -0.0884 0.1862
vn 0.9785 -0.0886 0.1861
vn 0.9785 -0.0884 0.1861
vn 0.9823 -0.0001 0.1874
vn 0.9823 0.0003 0.1872
vn -0.8874 -0.0612 -0.4569
vn -0.8874 -0.0611 -0.4569
vn -0.8874 -0.0609 -0.4569
vn 0.4853 -0.1813 -0.8554
vn 0.4853 -0.1812 -0.8554
vn -0.6676 0.1269 0.7336
vn -0.6676 0.1270 0.7336
vn -0.6676 0.1271 0.7336
vn 0.8512 0.5241 -0.0276
vn 0.8510 0.5244 -0.0276
vn 0.8510 0.5244 -0.0275
vn -0.3898 0.3615 -0.8470
vn -0.3899 0.3618 -0.8468
vn -0.3898 0.3614 -0.8470
vn 0.9997 -0.0001 -0.0247
vn 0.9997 -0.0006 -0.0246
vn 0.0298 0.0009 0.9996
vn 0.0299 0.0009 0.9996
vn -0.8089 -0.0002 0.5879
vn -0.8085 -0.0004 0.5884
vn -0.8085 0.0001 0.5884
vn -0.8092 0.0001 0.5875
vn 0.9997 0.0001 -0.0248
vn 0.7140 -0.0000 -0.7001
vn 0.7143 -0.0001 -0.6998
vn 0.7140 0.0001 -0.7001
vn -0.4562 0.1141 -0.8825
vn -0.4563 0.1141 -0.8825
vn -0.4563 0.1142 -0.8825
vn -0.6744 -0.0000 0.7384
vn -0.6742 -0.0000 0.7386
vn -0.7989 0.0436 -0.5998
vn -0.7990 0.0435 -0.5998
vn -0.6053 -0.0424 -0.7949
vn -0.6055 -0.0424 -0.7947
vn -0.6055 -0.0425 -0.7947
vn -0.4381 0.8930 0.1032
vn -0.7497 0.1530 -0.6438
vn -0.7497 0.1529 -0.6438
vn 0.9397 0.1513 0.3066
vn -0.4521 -0.0271 -0.8915
vn -0.4523 -0.0271 -0.8915
vn -0.4521 -0.0271 -0.8916
vn 0.0226 -0.0000 -0.9997
vn -0.2008 0.0214 -0.9794
vn -0.2009 0.0214 -0.9794
vn -0.9921 0.1179 0.0435
vn -0.9920 0.1182 0.0435
vn -0.9920 0.1181 0.0435
vn -0.7990 0.0436 -0.5997
vn -0.7989 0.0436 -0.5999
vn -0.7989 0.0435 -0.5999
vn 0.4399 0.0144 0.8979
vn 0.4400 0.0145 0.8979
vn 0.4400 0.0144 0.8979
vn -0.9768 0.1251 0.1737
vn 0.8604 0.0001 -0.5096
vn 0.8609 -0.0001 -0.5087
vn 0.8606 -0.0000 -0.5092
vn 0.9505 0.0068 0.3105
vn 0.9505 0.0069 0.3105
vn 0.9505 0.0070 0.3105
vn 0.0227 -0.0000 -0.9997
vn -0.9542 -0.0003 -0.2991
vn 0.0325 0.0033 0.9995
vn 0.0322 0.0027 0.9995
vn 0.0323 0.0031 0.9995
vn 0.4276 -0.0736 0.9010
vn 0.4275 -0.0737 0.9010
vn -0.7426 0.3124 -0.5924
vn -0.7426 0.3123 -0.5925
vn -0.2765 -0.1563 0.9482
vn -0.2766 -0.1563 0.9482
vn -0.6838 -0.0007 -0.7296
vn -0.6837 0.0002 -0.7298
vn -0.7876 -0.0563 0.6136
vn -0.7876 -0.0564 0.6136
vn -0.7789 0.4255 -0.4608
vn -0.7789 0.4255 -0.4607
vn -0.7788 0.4256 -0.4608
vn -0.3752 0.3910 0.8404
vn -0.3748 0.3908 0.8407
vn -0.3752 0.3909 0.8405
vn -0.0784 0.0142 0.9968
vn -0.0785 0.0142 0.9968
vn -0.6177 -0.0345 0.7857
vn -0.6177 -0.0344 0.7857
vn 0.4966 -0.0595 -0.8659
vn 0.4966 -0.0594 -0.8659
vn -0.2664 -0.0000 -0.9638
vn -0.2667 0.0006 -0.9638
vn -0.2665 0.0001 -0.9638
vn 0.5498 -0.0156 0.8352
vn 0.5525 -0.0216 0.8332
vn 0.5574 -0.0325 0.8296
vn 0.5529 -0.0224 0.8330
vn -0.9362 -0.0162 0.3511
vn -0.9362 -0.0161 0.3511
vn -0.9986 -0.0000 0.0533
vn 0.5822 -0.0592 -0.8109
vn 0.9048 -0.0000 -0.4259
vn 0.4275 -0.0736 0.9010
vn 0.4276 -0.0737 0.9010
vn -0.9004 -0.1464 -0.4096
vn -0.9005 -0.1465 -0.4096
vn 0.8835 -0.0426 -0.4666
vn 0.8834 -0.0426 -0.4667
vn -0.9997 0.0005 0.0246
vn -0.9997 -0.0000 0.0246
vn -0.9897 -0.0001 0.1430
vn -0.4865 0.0142 -0.8736
vn -0.4865 0.0142 -0.8735
vn -0.4866 0.0142 -0.8735
vn -0.4865 0.0141 -0.8736
vn -0.7911 -0.3588 -0.4953
vn -0.7912 -0.3589 -0.4952
vn -0.3750 0.0213 0.9268
vn -0.3750 0.0214 0.9268
vn -0.3751 0.0213 0.9267
vn 0.8240 0.0085 0.5665
vn 0.8238 0.0085 0.5668
vn 0.8238 0.0086 0.5668
vn 0.8240 0.0084 0.5665
vn 0.0884 -0.0617 -0.9942
vn 0.0885 -0.0618 -0.9942
vn 0.0884 -0.0618 -0.9942
vn 0.7119 0.0700 -0.6987
vn 0.7123 0.0704 -0.6983
vn 0.7123 0.0704 -0.6984
vn 0.7119 0.0700 -0.6988
vn -0.7498 0.1530 -0.6438
vn -0.7497 0.1531 -0.6438
vn -0.5118 0.1531 0.8453
vn -0.5120 0.1530 0.8453
vn -0.1630 -0.0786 0.9835
vn -0.1631 -0.0786 0.9835
vn -0.1631 -0.0785 0.9835
vn 0.4317 -0.0000 -0.9020
vn 0.7939 -0.0257 -0.6075
vn 0.7939 -0.0254 -0.6075
vn -0.3361 -0.0000 -0.9418
vn -0.3357 -0.0000 -0.9420
vn 0.8735 0.0001 0.4868
vn 0.8737 -0.0000 0.4865
vn 0.9997 0.0003 -0.0247
vn 0.9997 -0.0004 -0.0247
vn 0.7837 -0.0271 -0.6206
vn 0.7837 -0.0275 -0.6206
vn 0.7837 -0.0272 -0.6206
vn 0.1737 0.7321 -0.6587
vn 0.1743 0.7318 -0.6588
vn 0.5498 -0.0156 0.8351
vn 0.5526 -0.0217 0.8332
vn 0.5574 -0.0326 0.8296
vn 0.5529 -0.0223 0.8330
vn 0.0421 0.0213 0.9989
vn 0.0421 0.0214 0.9989
vn 0.0420 0.0214 0.9989
vn -0.1027 -0.0532 0.9933
vn -0.1025 -0.0531 0.9933
vn -0.0256 -0.0000 -0.9997
vt 1.001007 0.999970
vt 1.001007 1.415021
vt 0.493179 1.415021
vt 0.493179 0.999970
vt 0.476577 1.541978
vt 0.476577 1.929685
vt 0.311533 1.929685
vt 0.321299 1.541978
vt 0.327158 1.466781
vt 0.327158 1.672842
vt 0.024415 1.672842
vt 0.024415 1.466781
vt 0.000000 0.999970
vt 0.472670 0.999970
vt 0.472670 1.369122
vt 0.000000 1.369122
vt 0.299814 1.711905
vt 0.299814 1.972655
vt 0.001953 1.972655
vt 0.001953 1.711905
vt 1.001007 1.411115
vt 1.001007 2.005859
vt 0.493179 2.005859
vt 0.493179 1.411115
vt 0.499038 0.999970
vt 0.499038 1.415021
vt -0.001953 1.415998
vt -0.001953 1.000946
vt 0.311533 1.541978
vt 0.366222 1.426741
vt 0.297861 1.846675
vt -0.052736 1.847652
vt -0.055666 1.427717
vt 0.525406 0.999970
vt 0.998077 0.999970
vt 0.998077 1.404279
vt 0.525406 1.404279
vt 0.324229 1.541978
s 1
usemtl Tree_Branches_01
f 427/306/172 426/307/173 424/308/174 425/309/172
f 211/310/175 210/311/175 208/312/175 209/313/175
f 511/314/176 510/315/177 508/316/177 509/317/178
f 464/318/179 467/319/180 465/320/181 466/321/182
f 876/318/183 879/319/184 877/320/185 878/321/186
f 560/318/187 563/319/188 561/320/188 562/321/189
f 719/322/190 718/323/191 716/324/192 717/325/193
f 336/309/194 339/306/194 337/307/195 338/308/195
f 359/306/196 358/307/197 356/308/197 357/309/196
f 187/310/198 186/311/198 184/312/198 185/313/198
f 416/318/199 419/319/189 417/320/199 418/321/200
f 291/306/201 290/307/202 288/308/202 289/309/201
f 903/306/203 902/307/204 900/308/205 901/309/203
f 583/319/206 582/320/206 580/321/207 581/318/206
f 243/306/208 242/307/209 240/308/209 241/309/208
f 867/306/210 866/307/210 864/308/210 865/309/210
f 627/319/211 626/320/211 624/321/211 625/318/211
f 712/309/212 715/306/212 713/307/212 714/308/213
f 695/319/214 694/320/214 692/321/214 693/318/214
f 599/314/215 598/315/216 596/316/216 597/317/215
f 671/319/217 670/320/218 668/321/218 669/318/217
f 352/318/219 355/319/219 353/320/220 354/321/221
f 407/306/222 406/307/222 404/308/222 405/309/222
f 435/319/223 434/320/224 432/321/225 433/318/223
f 667/306/226 666/307/227 664/308/228 665/309/229
f 271/306/230 270/307/231 268/308/231 269/309/230
f 639/322/232 638/323/233 636/324/234 637/325/235
f 523/306/236 522/307/237 520/308/238 521/309/236
f 494/307/239 495/306/240 492/309/241 493/308/241
f 643/306/242 642/307/243 640/308/244 641/309/242
f 347/319/245 346/320/246 344/321/246 345/318/245
f 515/322/247 514/323/248 512/324/248 513/325/247
f 275/319/249 274/320/249 272/321/249 273/318/249
f 547/319/250 546/320/251 544/321/251 545/318/250
f 351/306/252 350/307/253 348/308/254 349/309/252
f 295/319/255 294/320/256 292/321/256 293/318/255
f 483/319/257 482/320/258 480/321/259 481/318/257
f 199/310/260 198/311/261 196/312/261 197/313/262
f 711/319/263 710/320/264 708/321/264 709/318/264
f 455/319/265 454/320/265 452/321/265 453/318/265
f 567/306/266 566/307/267 564/308/267 565/309/266
f 284/318/268 287/319/268 285/320/269 286/321/270
f 387/322/271 386/323/272 384/324/273 385/325/274
f 431/319/275 430/320/275 428/321/276 429/318/275
f 610/307/277 611/306/277 608/309/278 609/308/278
f 215/306/279 214/307/280 212/308/280 213/309/279
f 507/326/281 506/327/282 504/328/283 505/329/284
f 891/319/285 890/320/286 888/321/286 889/318/287
f 248/318/288 251/319/288 249/320/289 250/321/290
f 500/309/291 503/306/292 501/307/293 502/308/293
f 787/319/294 786/320/295 784/321/295 785/318/294
f 471/319/296 470/320/296 468/321/296 469/318/296
f 575/306/297 574/307/298 572/308/299 573/309/297
f 374/307/241 375/306/241 372/309/300 373/308/300
f 231/306/301 230/307/302 228/308/302 229/309/303
f 376/309/304 379/306/304 377/307/293 378/308/293
f 863/319/305 862/320/306 860/321/306 861/318/305
f 655/306/307 654/307/308 652/308/309 653/309/307
f 543/306/310 542/307/310 540/308/310 541/309/310
f 887/319/311 886/320/311 884/321/311 885/318/311
f 531/319/312 530/320/312 528/321/312 529/318/312
f 367/306/313 366/307/313 364/308/313 365/309/313
f 311/306/314 310/307/315 308/308/316 309/309/314
f 487/306/317 486/307/317 484/308/317 485/309/313
f 723/319/318 722/320/319 720/321/319 721/318/318
f 383/326/320 382/327/320 380/328/320 381/329/320
f 218/307/321 219/306/321 216/309/322 217/308/322
f 423/306/323 422/307/267 420/308/267 421/309/267
f 179/310/324 178/313/324 176/312/324 177/311/324
f 704/318/325 707/319/325 705/320/326 706/321/326
f 263/326/327 262/327/327 260/328/327 261/329/327
f 847/319/328 846/320/329 844/321/329 845/318/328
f 267/326/330 266/327/330 264/328/330 265/329/330
f 203/310/198 202/311/198 200/312/198 201/313/198
f 363/319/331 362/320/331 360/321/331 361/318/331
f 728/318/181 731/319/181 729/320/182 730/321/182
f 323/306/332 322/307/333 320/308/333 321/309/332
f 843/306/334 842/307/335 840/308/336 841/309/334
f 687/306/337 686/307/338 684/308/339 685/309/340
f 395/306/341 394/307/342 392/308/343 393/309/341
f 343/314/344 342/315/345 340/316/345 341/317/346
f 327/319/347 326/320/348 324/321/348 325/318/347
f 651/314/349 650/315/350 648/316/350 649/317/351
f 224/309/352 227/306/352 225/307/353 226/308/353
f 535/322/354 534/323/354 532/324/355 533/325/354
f 848/309/356 851/306/356 849/307/357 850/308/357
f 683/306/358 682/307/359 680/308/360 681/309/361
f 475/306/362 474/307/362 472/308/362 473/309/362
f 439/306/363 438/307/363 436/308/363 437/309/363
f 807/306/364 806/307/364 804/308/364 805/309/364
f 296/309/365 299/306/365 297/307/366 298/308/366
f 603/319/367 602/320/367 600/321/367 601/318/367
f 663/319/368 662/320/369 660/321/369 661/318/368
f 399/319/370 398/320/371 396/321/371 397/318/370
f 831/306/372 830/307/372 828/308/372 829/309/372
f 799/306/373 798/307/373 796/308/373 797/309/373
f 239/319/374 238/320/375 236/321/375 237/318/374
f 491/306/376 490/307/376 488/308/376 489/309/376
f 319/306/377 318/307/377 316/308/377 317/309/377
f 607/306/378 606/307/379 604/308/379 605/309/378
f 623/306/380 622/307/380 620/308/380 621/309/380
f 411/319/381 410/320/382 408/321/383 409/318/384
f 699/330/385 698/331/386 696/332/387 697/333/388
f 834/307/389 835/306/389 832/309/390 833/308/390
f 871/319/391 870/320/392 868/321/393 869/318/391
f 754/307/394 755/306/394 752/309/394 753/308/394
f 444/318/395 447/319/395 445/320/396 446/321/396
f 279/306/397 278/307/398 276/308/398 277/309/397
f 220/318/399 223/319/399 221/320/399 222/321/399
f 739/306/400 738/307/401 736/308/401 737/309/402
f 259/319/403 258/320/404 256/321/403 257/318/403
f 628/309/405 631/306/406 629/307/407 630/308/407
f 448/309/408 451/306/408 449/307/408 450/308/409
f 255/319/410 254/320/411 252/321/412 253/318/410
f 883/306/413 882/307/414 880/308/415 881/309/413
f 303/322/416 302/323/417 300/324/417 301/325/418
f 191/310/419 190/311/419 188/312/420 189/313/419
f 587/319/421 586/320/422 584/321/422 585/318/421
f 635/314/423 634/315/424 632/316/425 633/317/426
f 207/310/427 206/311/427 204/312/427 205/334/427
f 659/322/428 658/323/429 656/324/429 657/325/430
f 743/306/431 742/307/432 740/308/433 741/309/431
f 875/314/434 874/315/435 872/316/435 873/317/435
f 519/314/436 518/315/437 516/316/437 517/317/436
f 307/319/438 306/320/439 304/321/440 305/318/438
f 855/326/441 854/327/441 852/328/441 853/329/441
f 442/307/442 443/306/442 440/309/443 441/308/443
f 403/306/204 402/307/204 400/308/204 401/309/204
f 571/306/173 570/307/444 568/308/444 569/309/173
f 315/319/445 314/320/446 312/321/446 313/318/447
f 727/306/448 726/307/448 724/308/448 725/309/448
f 672/318/449 675/319/449 673/320/450 674/321/450
f 899/310/451 898/311/452 896/312/453 897/313/451
f 391/314/454 390/315/455 388/316/456 389/317/454
f 591/319/457 590/320/458 588/321/459 589/318/457
f 823/306/460 822/307/460 820/308/460 821/309/460
f 775/314/461 774/315/462 772/316/463 773/317/461
f 579/319/464 578/320/465 576/321/466 577/318/465
f 463/306/467 462/307/467 460/308/467 461/309/467
f 371/306/468 370/307/468 368/308/468 369/309/468
f 335/319/469 334/320/470 332/321/470 333/318/471
f 811/319/472 810/320/473 808/321/473 809/318/472
f 783/314/474 782/315/475 780/316/474 781/317/474
f 763/306/476 762/307/477 760/308/477 761/309/476
f 751/306/478 750/307/479 748/308/479 749/309/478
f 791/322/480 790/323/481 788/324/481 789/325/480
f 815/306/477 814/307/477 812/308/477 813/309/477
f 803/306/482 802/307/483 800/308/483 801/309/484
f 795/314/485 794/315/486 792/316/486 793/317/487
f 619/306/488 618/307/489 616/308/489 617/309/488
f 747/306/490 746/307/491 744/308/491 745/309/491
f 767/319/492 766/320/493 764/321/493 765/318/492
f 827/319/494 826/320/495 824/321/495 825/318/496
f 895/335/497 894/336/498 892/337/499 893/338/500
f 756/339/501 759/340/501 757/341/501 758/342/502
f 415/314/503 414/315/503 412/316/503 413/317/503
f 768/309/504 771/306/504 769/307/504 770/308/504
f 247/306/505 246/307/505 244/308/505 245/309/505
f 819/319/506 818/320/507 816/321/507 817/318/506
f 779/306/508 778/307/509 776/308/509 777/309/508
f 459/319/510 458/320/511 456/321/511 457/318/510
f 195/310/512 194/311/512 192/312/513 193/313/512
f 551/306/514 550/307/514 548/308/514 549/309/514
f 679/306/515 678/307/516 676/308/517 677/309/518
f 479/314/519 478/315/520 476/316/520 477/317/519
f 612/318/521 615/319/522 613/320/523 614/321/523
f 175/310/524 174/311/525 172/312/526 173/313/527
f 499/319/528 498/320/529 496/321/529 497/318/530
f 647/322/531 646/323/532 644/324/533 645/325/534
f 702/307/535 703/306/535 700/309/536 701/308/536
f 282/307/537 283/306/537 280/309/538 281/308/538
f 595/319/539 594/320/540 592/321/541 593/318/539
f 331/319/542 330/320/542 328/321/542 329/318/542
f 691/319/543 690/320/544 688/321/544 689/318/543
f 555/306/545 554/307/222 552/308/546 553/309/545
f 527/314/547 526/315/548 524/316/547 525/317/547
f 183/310/549 182/343/550 180/312/550 181/311/549
f 559/319/551 558/320/552 556/321/552 557/318/553
f 859/322/554 858/323/555 856/324/555 857/325/554
f 735/335/556 734/336/557 732/337/558 733/338/559
f 836/318/560 839/319/561 837/320/562 838/321/562
f 539/314/563 538/315/564 536/316/564 537/317/563
f 235/306/565 234/307/565 232/308/565 233/309/565
