# Blender 4.5.11 LTS Release Candidate
# www.blender.org
mtllib sesta.mtl
o Cube
v -1.000000 0.391418 1.000000
v -1.000000 0.391418 -1.000000
v 1.000000 0.391418 1.000000
v 1.000000 0.391418 -1.000000
v -2.386269 -1.483408 -1.874426
v -2.386269 -1.483408 2.031519
v -2.386269 1.483408 2.031519
v -2.386269 1.483408 -1.874426
v 2.346086 -1.483408 -1.874426
v 2.346086 1.483408 -1.874426
v 2.346086 -1.483408 2.031519
v 2.346086 1.483408 2.031519
vn -0.6300 0.7766 -0.0000
vn -0.0000 0.6251 0.7806
vn -0.0000 0.6867 -0.7269
vn 0.6188 0.7856 -0.0000
vn -0.0000 1.0000 -0.0000
vn -1.0000 -0.0000 -0.0000
vn -0.0000 -0.0000 -1.0000
vn 1.0000 -0.0000 -0.0000
vn -0.0000 -0.0000 1.0000
vn -0.0000 -1.0000 -0.0000
vt 0.625000 0.500000
vt 0.625000 0.750000
vt 0.875000 0.500000
vt 0.875000 0.750000
vt 0.375000 0.000000
vt 0.625000 0.000000
vt 0.625000 0.250000
vt 0.375000 0.250000
vt 0.375000 0.500000
vt 0.375000 0.750000
vt 0.625000 1.000000
vt 0.375000 1.000000
vt 0.125000 0.500000
vt 0.125000 0.750000
s 0
f 4/1/1 3/2/1 12/2/1 10/1/1
f 2/3/2 4/1/2 10/1/2 8/3/2
f 3/2/3 1/4/3 7/4/3 12/2/3
f 1/4/4 2/3/4 8/3/4 7/4/4
f 4/1/5 2/3/5 1/4/5 3/2/5
f 6/5/6 7/6/6 8/7/6 5/8/6
f 5/8/7 8/7/7 10/1/7 9/9/7
f 9/9/8 10/1/8 12/2/8 11/10/8
f 11/10/9 12/2/9 7/11/9 6/12/9
f 5/13/10 9/9/10 11/10/10 6/14/10
